<svg xmlns="http://www.w3.org/2000/svg" xmlns:xlink="http://www.w3.org/1999/xlink" width="2000" zoomAndPan="magnify" viewBox="0 0 1500 1499.999933" height="2000" preserveAspectRatio="xMidYMid meet" version="1.0"><defs><clipPath id="f83e45a892"><path d="M 59.484375 365.957031 L 1440.234375 365.957031 L 1440.234375 1177.457031 L 59.484375 1177.457031 Z M 59.484375 365.957031 " clip-rule="nonzero"/></clipPath></defs><path fill="#171514" d="M 1039.195312 541.859375 C 1039.195312 541.859375 1060.203125 551.628906 1061.667969 551.628906 C 1063.132812 551.628906 1066.0625 535.503906 1065.089844 534.039062 C 1064.105469 532.574219 1062.640625 527.203125 1060.695312 527.683594 C 1058.738281 528.175781 1042.621094 535.503906 1042.621094 535.503906 L 1038.222656 543.328125 " fill-opacity="1" fill-rule="nonzero"/><path fill="#656263" d="M 546.890625 794.550781 C 546.890625 798.5 550.105469 801.730469 554.066406 801.730469 C 558.015625 801.730469 561.246094 798.5 561.246094 794.550781 C 561.246094 790.585938 558.015625 787.359375 554.066406 787.359375 C 550.105469 787.359375 546.890625 790.585938 546.890625 794.550781 " fill-opacity="1" fill-rule="nonzero"/><path fill="#656263" d="M 662.316406 904.511719 C 662.316406 900.5625 659.101562 897.332031 655.140625 897.332031 C 651.191406 897.332031 647.960938 900.5625 647.960938 904.511719 C 647.960938 908.476562 651.191406 911.691406 655.140625 911.691406 C 659.101562 911.691406 662.316406 908.476562 662.316406 904.511719 " fill-opacity="1" fill-rule="nonzero"/><path fill="#656263" d="M 286.503906 825.070312 C 331.960938 825.070312 373.929688 847.664062 399.179688 885.570312 C 403.554688 884.105469 407.824219 882.640625 411.957031 881.242188 C 385.261719 835.503906 336.324219 807.238281 283.421875 807.238281 C 201.402344 807.238281 134.671875 873.992188 134.671875 956.058594 C 134.671875 1038.113281 201.402344 1104.898438 283.421875 1104.898438 C 351.445312 1104.898438 411.578125 1057.523438 427.8125 991.765625 C 424.480469 991.914062 421.21875 992.050781 418.148438 992.175781 C 403.632812 1052.449219 348.664062 1095.988281 286.503906 1095.988281 C 211.828125 1095.988281 151.078125 1035.214844 151.078125 960.535156 C 151.078125 885.835938 211.828125 825.070312 286.503906 825.070312 " fill-opacity="1" fill-rule="nonzero"/><path fill="#656263" d="M 1009.949219 583.683594 C 1011.253906 585.195312 1012.28125 586.925781 1013.003906 588.824219 L 1013.726562 590.691406 L 1015.292969 589.445312 C 1029.441406 578.152344 1039.769531 569.515625 1041.589844 567.457031 L 1041.851562 567.148438 L 1041.933594 566.746094 C 1042.171875 565.382812 1041.164062 562.304688 1038.992188 560.539062 C 1038.210938 559.945312 1036.390625 559.601562 1034.125 559.601562 C 1033.644531 559.601562 1033.199219 559.601562 1032.785156 559.632812 L 1032.386719 559.65625 L 1004.40625 579.125 L 1006.214844 580.316406 C 1007.578125 581.222656 1008.835938 582.34375 1009.949219 583.683594 " fill-opacity="1" fill-rule="nonzero"/><path fill="#656263" d="M 1096.492188 606.632812 L 1088.683594 607.5625 L 1096.296875 609.507812 C 1124.242188 616.652344 1167.914062 628.335938 1226.113281 644.21875 L 1227.898438 644.699219 L 1229.296875 601.226562 L 1151.53125 601.226562 C 1144.515625 601.800781 1119.8125 603.863281 1096.492188 606.632812 " fill-opacity="1" fill-rule="nonzero"/><path fill="#2c2a2a" d="M 1150.765625 586.59375 C 1150.949219 586.570312 1151.121094 586.570312 1151.292969 586.570312 L 1222.898438 586.570312 L 1222.703125 584.921875 C 1220.628906 567.914062 1218.753906 554.160156 1217.941406 549.878906 L 1217.207031 548.617188 C 1215.570312 546.28125 1211.242188 540.0625 1205.632812 533.84375 L 1205.3125 533.5 L 1153.328125 521.726562 L 1090.539062 579.894531 C 1089.210938 581.117188 1086.933594 581.371094 1085.386719 580.488281 C 1084.035156 579.710938 1082.527344 579.230469 1081.851562 579.078125 L 1081.4375 578.976562 L 1081.027344 579.113281 C 1079.652344 579.59375 1077.761719 579.996094 1075.703125 580.226562 C 1073.917969 580.441406 1072.347656 580.5 1071.605469 580.535156 C 1069.234375 580.535156 1067.378906 578.953125 1067.09375 576.894531 C 1067.09375 576.859375 1067.027344 576.25 1066.886719 575.1875 L 1065.890625 567.707031 L 1063.730469 571.019531 C 1062.871094 572.347656 1062.183594 573.386719 1061.65625 574.097656 L 1061.394531 574.464844 L 1060.84375 597.324219 L 1062.652344 596.945312 C 1088.214844 591.550781 1148.167969 586.789062 1150.765625 586.59375 " fill-opacity="1" fill-rule="nonzero"/><path fill="#656263" d="M 1326.304688 798.523438 L 1325.363281 797.984375 L 1305.410156 816.605469 L 1303.832031 819.113281 C 1302.101562 821.976562 1300.261719 825.046875 1298.371094 828.253906 L 1297.582031 829.605469 L 1298.988281 830.304688 C 1351.28125 856.105469 1385.0625 910.328125 1385.0625 968.460938 C 1385.0625 1003.710938 1372.792969 1038.214844 1350.414062 1065.710938 C 1350.183594 1066.042969 1349.941406 1066.386719 1349.714844 1066.671875 C 1349.542969 1066.855469 1349.359375 1067.015625 1349.015625 1067.335938 C 1327.757812 1092.796875 1298.222656 1110.945312 1265.734375 1118.492188 C 1265.378906 1118.609375 1265.230469 1118.621094 1265.230469 1118.621094 L 1264.910156 1118.652344 C 1253.726562 1121.171875 1242.371094 1122.457031 1231.152344 1122.457031 C 1211.164062 1122.457031 1191.691406 1118.640625 1173.269531 1111.128906 L 1172.90625 1110.980469 L 1172.515625 1111.039062 C 1170.980469 1111.253906 1169.425781 1110.957031 1168.050781 1110.203125 C 1167.007812 1109.628906 1166.171875 1108.875 1165.554688 1107.957031 L 1165.328125 1107.613281 L 1164.972656 1107.441406 C 1136.605469 1093.882812 1113.320312 1072.261719 1097.613281 1044.914062 L 1097.429688 1044.664062 C 1097.328125 1044.535156 1097.214844 1044.398438 1097.167969 1044.332031 C 1096.9375 1043.964844 1096.742188 1043.5625 1096.480469 1042.945312 C 1083.875 1020.210938 1077.203125 994.457031 1077.203125 968.460938 C 1077.203125 962.253906 1077.601562 955.863281 1078.394531 949.460938 L 1078.929688 945.132812 L 1039.367188 985.925781 L 1039.4375 986.613281 C 1049.832031 1084.894531 1132.242188 1159.023438 1231.152344 1159.023438 C 1337.441406 1159.023438 1423.929688 1072.503906 1423.929688 966.171875 C 1423.929688 897.113281 1386.519531 832.878906 1326.304688 798.523438 " fill-opacity="1" fill-rule="nonzero"/><path fill="#1c1b1a" d="M 1077.902344 954.84375 C 1078.0625 953.046875 1078.175781 951.257812 1078.394531 949.460938 L 1078.929688 945.132812 L 1039.367188 985.925781 L 1039.4375 986.613281 C 1044.140625 1031.101562 1063.636719 1070.613281 1092.714844 1100.570312 C 1062.261719 1042.335938 1069.863281 985.421875 1077.902344 954.84375 " fill-opacity="1" fill-rule="nonzero"/><path fill="#1c1b1a" d="M 1397.804688 869.527344 C 1380.921875 840.460938 1356.480469 815.734375 1326.304688 798.523438 L 1325.363281 797.984375 L 1313.046875 809.484375 C 1335.359375 819.046875 1372.003906 838.273438 1397.804688 869.527344 " fill-opacity="1" fill-rule="nonzero"/><path fill="#656263" d="M 963.664062 698.339844 L 958.640625 696.074219 L 958.066406 697.484375 C 931.347656 763.285156 912.378906 818.050781 913.980469 824.964844 C 916.398438 832.878906 931.566406 859.632812 943.859375 880.679688 L 945.507812 883.496094 L 970.050781 808.785156 C 970.085938 808.671875 970.132812 808.566406 970.179688 808.464844 L 1023.949219 697.882812 L 965.519531 698.707031 C 964.878906 698.707031 964.191406 698.570312 963.664062 698.339844 " fill-opacity="1" fill-rule="nonzero"/><path fill="#656263" d="M 1002.277344 1004.179688 L 1002.496094 1003.5625 L 943.929688 898.097656 C 940.414062 892.210938 909.472656 840.253906 905.558594 827.53125 C 902.878906 818.804688 919.109375 770.066406 950.089844 693.804688 L 950.613281 692.5 L 925.886719 681.414062 L 925.246094 682.640625 C 914.1875 703.78125 858.875 810.675781 855.234375 838.273438 C 852.621094 858.257812 865.113281 904.238281 867.710938 909.449219 C 867.882812 909.804688 868.03125 910.148438 868.144531 910.5 L 893.203125 989.164062 L 1002.507812 1010.421875 L 1002.039062 1008.246094 C 1001.738281 1006.882812 1001.820312 1005.484375 1002.277344 1004.179688 " fill-opacity="1" fill-rule="nonzero"/><path fill="#656263" d="M 783.019531 800.550781 L 785.289062 789.203125 C 785.664062 787.335938 787.300781 785.859375 789.203125 785.6875 L 861.507812 779.160156 L 861.847656 778.378906 C 877.980469 742.433594 898.847656 701.628906 909.847656 680.5 L 910.664062 678.941406 L 891.292969 672.964844 L 817.890625 705.636719 L 818.1875 706.828125 C 818.507812 708.121094 818.667969 709.449219 818.667969 710.789062 C 818.667969 719.894531 811.273438 727.292969 802.171875 727.292969 C 796.300781 727.292969 790.828125 724.109375 787.910156 718.976562 L 787.292969 717.867188 L 762.621094 727.507812 L 742.472656 769.402344 L 776.335938 800.90625 L 783.019531 800.550781 " fill-opacity="1" fill-rule="nonzero"/><path fill="#656263" d="M 610.953125 788.515625 C 611.203125 789.132812 611.328125 789.71875 611.328125 790.324219 C 611.328125 797.449219 605.949219 820.410156 605.707031 821.40625 C 605.457031 822.550781 604.679688 823.582031 603.726562 824.128906 L 601.324219 825.355469 L 652.585938 881.964844 L 673.820312 837.804688 L 659.5 823.453125 C 658.632812 822.605469 658.148438 821.371094 658.21875 820.15625 C 658.289062 818.929688 658.871094 817.761719 659.820312 816.960938 L 663.152344 814.234375 L 628.765625 792.582031 C 627.847656 791.996094 627.195312 791.136719 626.886719 790.117188 L 624.390625 781.667969 L 610.367188 787.128906 L 610.953125 788.515625 " fill-opacity="1" fill-rule="nonzero"/><path fill="#656263" d="M 622.171875 941.101562 L 621.046875 941.34375 L 619.640625 978.800781 L 620.863281 979.042969 C 630.789062 980.964844 638.378906 982.605469 644.722656 983.988281 L 646.4375 984.367188 L 648.121094 933.636719 L 646.039062 934.460938 C 640.359375 936.738281 632.324219 938.972656 622.171875 941.101562 " fill-opacity="1" fill-rule="nonzero"/><path fill="#656263" d="M 556.964844 714.097656 C 554.503906 714.097656 547.933594 711.683594 531.539062 695.46875 L 531.296875 695.226562 L 497.207031 683.695312 L 549.546875 746.40625 L 557.320312 750.230469 C 559.070312 751.042969 560.398438 752.519531 561.0625 754.375 C 561.726562 756.21875 561.625 758.222656 560.800781 760 C 560.054688 761.566406 558.773438 762.816406 557.203125 763.503906 L 557.191406 763.503906 L 557.148438 763.527344 C 555.28125 764.40625 552.902344 764.375 551.058594 763.492188 L 523.308594 750.34375 L 511.34375 788.835938 L 534.503906 795.773438 L 534.425781 793.726562 C 534.378906 792.328125 534.515625 790.929688 534.835938 789.566406 C 536.039062 784.414062 539.703125 780.167969 544.648438 778.230469 L 560.296875 771.933594 L 597.980469 756.792969 L 594.628906 754.148438 C 593.472656 753.21875 592.851562 751.707031 593.035156 750.230469 C 593.230469 748.707031 594.167969 747.414062 595.542969 746.773438 L 610.574219 739.730469 L 595.839844 729.617188 C 577.007812 721.164062 559.996094 714.351562 556.964844 714.097656 " fill-opacity="1" fill-rule="nonzero"/><path fill="#2c2a2a" d="M 426.230469 596.703125 C 427.664062 597.804688 461.59375 623.457031 474.585938 628.117188 C 500.664062 637.472656 574.320312 642.285156 604.769531 643.910156 L 606.511719 644 L 606.1875 641.46875 C 605.664062 638.035156 604.449219 630.019531 603.375 626.664062 L 603.257812 626.308594 L 596.894531 620.386719 C 594.273438 618.75 580.066406 610.5625 558.316406 609.761719 C 535.957031 608.957031 465.121094 587.507812 453.179688 581.140625 L 451.863281 580.625 L 451.828125 580.683594 C 451.453125 580.523438 450.992188 580.316406 450.421875 580.078125 L 448.53125 579.242188 C 438.011719 574.738281 428.210938 570.355469 423.953125 566.09375 C 422.25 564.386719 415.023438 562.96875 410 562.886719 C 409.289062 562.851562 408.695312 562.773438 408.179688 562.613281 L 407.355469 562.371094 L 406.75 562.976562 C 405.59375 564.101562 405.214844 564.640625 405.019531 565.003906 C 404.390625 566.472656 404.8125 570.34375 408.085938 576.421875 C 410.34375 580.582031 420.324219 591 426.230469 596.703125 " fill-opacity="1" fill-rule="nonzero"/><path fill="#656263" d="M 602.984375 875.480469 L 602.25 875.527344 C 601.769531 875.527344 601.265625 875.457031 600.625 875.285156 C 600.292969 875.195312 563.179688 864.683594 541.027344 861.84375 C 527.394531 860.113281 509.296875 862.851562 487.730469 869.902344 C 484.054688 871.105469 480.34375 872.402344 476.683594 873.742188 C 470.121094 876.214844 463.816406 878.769531 457.941406 881.332031 C 452.550781 883.691406 444.195312 886.898438 433.125 890.882812 C 429.609375 892.144531 425.890625 893.460938 422.03125 894.800781 C 416.433594 896.769531 410.515625 898.785156 404.457031 900.835938 L 390.835938 905.417969 C 388.648438 906.148438 386.464844 906.871094 384.265625 907.59375 L 353.6875 917.566406 C 329.613281 925.332031 308.972656 931.800781 300.160156 934.5625 C 297.699219 935.339844 296.234375 935.789062 296.082031 935.84375 L 273.679688 941.855469 L 271.140625 942.542969 L 270.851562 942.613281 L 255.042969 946.863281 L 251.277344 976.121094 L 252.765625 976.28125 C 258.066406 976.808594 266.320312 977.597656 275.628906 978.261719 L 275.777344 978.273438 C 284.683594 978.972656 297.710938 979.796875 309.304688 979.796875 C 317.71875 979.796875 323.730469 979.339844 327.140625 978.433594 C 333.65625 976.71875 336.847656 974.941406 339.972656 973.191406 C 344.472656 970.671875 348.867188 968.574219 356.960938 968.574219 C 358.953125 968.574219 361.09375 968.699219 363.453125 968.941406 L 364.871094 969.125 C 368.914062 969.605469 372.851562 970.28125 376.574219 971.140625 C 382.824219 972.605469 387.628906 974.359375 390.871094 975.539062 L 392.1875 976.019531 C 392.917969 976.28125 393.730469 976.570312 394.144531 976.695312 L 394.363281 976.75 L 394.578125 976.75 C 396.042969 976.71875 398.859375 976.660156 402.605469 976.570312 L 417.796875 976.054688 C 422.785156 975.835938 428.15625 975.605469 433.582031 975.320312 C 437.578125 975.101562 441.59375 974.875 445.476562 974.609375 C 465.726562 973.234375 472.90625 971.816406 475.34375 970.875 C 479.96875 969.101562 484.144531 967.371094 488.460938 965.585938 L 491.679688 964.234375 C 495.421875 962.6875 499.292969 961.109375 503.617188 959.378906 C 506.914062 958.0625 510.488281 956.6875 514.515625 955.199219 C 522.242188 952.324219 534.550781 948.144531 552.121094 942.40625 L 559.105469 940.128906 L 551.777344 939.554688 C 542.449219 938.824219 535.132812 930.898438 535.132812 921.519531 C 535.132812 911.980469 542.894531 903.894531 552.71875 903.449219 L 575.578125 897.90625 L 576.699219 890.792969 C 576.964844 889.191406 578.050781 887.859375 579.5625 887.335938 L 605.480469 878.058594 L 604.09375 876.445312 L 602.984375 875.480469 " fill-opacity="1" fill-rule="nonzero"/><path fill="#7b7979" d="M 285.117188 948.476562 C 349.820312 928.882812 469.757812 892.695312 494.105469 886.339844 C 513.945312 881.160156 541.910156 891.730469 561.554688 901.304688 L 575.578125 897.90625 L 576.699219 890.792969 C 576.964844 889.191406 578.050781 887.859375 579.5625 887.335938 L 605.480469 878.058594 L 604.09375 876.445312 L 602.984375 875.480469 L 602.25 875.527344 C 601.769531 875.527344 601.265625 875.457031 600.625 875.285156 C 600.292969 875.195312 563.179688 864.683594 541.027344 861.84375 C 527.394531 860.113281 509.296875 862.851562 487.730469 869.902344 C 484.054688 871.105469 480.34375 872.402344 476.683594 873.742188 C 470.121094 876.214844 463.816406 878.769531 457.941406 881.332031 C 452.550781 883.691406 444.195312 886.898438 433.125 890.882812 C 429.609375 892.144531 425.890625 893.460938 422.03125 894.800781 C 416.433594 896.769531 410.515625 898.785156 404.457031 900.835938 L 390.835938 905.417969 C 388.648438 906.148438 386.464844 906.871094 384.265625 907.59375 L 353.6875 917.566406 C 329.613281 925.332031 308.972656 931.800781 300.160156 934.5625 C 297.699219 935.339844 296.234375 935.789062 296.082031 935.84375 L 273.679688 941.855469 L 271.140625 942.542969 L 270.851562 942.613281 L 255.042969 946.863281 L 253.601562 958.039062 C 256.785156 957.078125 260.628906 955.910156 265.0625 954.558594 L 285.117188 948.476562 " fill-opacity="1" fill-rule="nonzero"/><path fill="#656263" d="M 578.164062 799.761719 L 589.417969 812.199219 L 598.210938 814.808594 L 598.554688 813.261719 C 600.007812 806.515625 601.851562 797.449219 602.386719 792.570312 L 602.652344 790.152344 L 578.164062 799.761719 " fill-opacity="1" fill-rule="nonzero"/><path fill="#656263" d="M 480.632812 984.5625 C 475.675781 986.441406 464.03125 988.019531 446.035156 989.246094 L 444.925781 989.324219 L 444.699219 990.402344 C 428.601562 1066.089844 360.785156 1121.023438 283.421875 1121.023438 C 192.515625 1121.023438 118.554688 1047.019531 118.554688 956.058594 C 118.554688 865.105469 192.515625 791.113281 283.421875 791.113281 C 339.46875 791.113281 391.191406 819.296875 421.777344 866.492188 L 422.671875 867.878906 L 423.941406 866.835938 C 424.410156 866.433594 424.894531 866.078125 425.386719 865.710938 C 428.144531 863.730469 431.257812 861.660156 434.65625 859.550781 L 435.480469 859.046875 L 435.332031 858.085938 C 434.3125 851.386719 432.265625 841.628906 428.351562 833.246094 C 422.328125 820.304688 396.207031 790.382812 386.851562 780.980469 C 384.183594 778.34375 375.152344 774.554688 364.519531 770.238281 L 364.070312 770.054688 C 351.503906 764.921875 338.507812 759.621094 332.121094 753.207031 C 331.546875 752.660156 330.976562 752.0625 330.402344 751.46875 L 330.105469 751.148438 L 329.671875 751.042969 C 314.398438 747.5625 298.84375 745.789062 283.421875 745.789062 C 168.890625 745.789062 75.707031 839.007812 75.707031 953.597656 C 75.707031 1068.171875 168.890625 1161.394531 283.421875 1161.394531 C 373.769531 1161.394531 455.414062 1100.972656 482.003906 1014.3125 C 482.246094 1013.03125 482.644531 1011.679688 483.265625 1010.042969 C 485.726562 1001.339844 487.636719 992.453125 488.929688 983.621094 L 489.308594 981.058594 L 486.925781 982.054688 C 484.878906 982.902344 482.804688 983.714844 480.632812 984.5625 " fill-opacity="1" fill-rule="nonzero"/><path fill="#b9b9ba" d="M 482.003906 1014.3125 C 482.246094 1013.03125 482.644531 1011.679688 483.265625 1010.042969 C 485.726562 1001.339844 487.636719 992.453125 488.929688 983.621094 L 489.308594 981.058594 L 486.925781 982.054688 C 484.878906 982.902344 482.804688 983.714844 480.632812 984.5625 C 477.6875 985.671875 472.34375 986.679688 464.777344 987.574219 C 460.117188 1016.308594 442.695312 1094.890625 387.675781 1132.832031 C 431.820312 1106.960938 466.402344 1065.160156 482.003906 1014.3125 " fill-opacity="1" fill-rule="nonzero"/><path fill="#f6be0a" d="M 1163.335938 907.628906 L 1170.636719 910.089844 C 1174.09375 906.449219 1177.816406 903.160156 1181.742188 900.261719 L 1178.960938 893.703125 C 1173.269531 897.746094 1168.027344 902.40625 1163.335938 907.628906 " fill-opacity="1" fill-rule="nonzero"/><path fill="#f6be0a" d="M 1215.5 906.652344 L 1192.9375 856.058594 L 1184.089844 860.683594 L 1205.714844 911.761719 L 1215.5 906.652344 " fill-opacity="1" fill-rule="nonzero"/><path fill="#656263" d="M 548.058594 1060.007812 C 555.179688 1062.597656 562.449219 1064.003906 568.539062 1064.003906 C 575.199219 1064.003906 578.796875 1062.242188 579.265625 1060.980469 C 580.261719 1058.222656 573.058594 1048.40625 554.652344 1041.753906 C 547.53125 1039.164062 540.261719 1037.734375 534.171875 1037.734375 C 527.542969 1037.734375 523.914062 1039.519531 523.445312 1040.78125 C 522.472656 1043.503906 529.648438 1053.332031 548.058594 1060.007812 " fill-opacity="1" fill-rule="nonzero"/><path fill="#f6be0a" d="M 610.332031 952.679688 L 593.105469 949.253906 C 592.164062 949.070312 591.285156 948.671875 590.550781 948.074219 L 569.980469 931.515625 C 569.453125 932.363281 568.894531 933.1875 568.273438 933.945312 L 595.324219 952.886719 L 610.300781 954.179688 L 610.332031 952.679688 " fill-opacity="1" fill-rule="nonzero"/><path fill="#f6be0a" d="M 1329.234375 971.390625 C 1329.234375 933.417969 1306.085938 898.648438 1271.273438 883.761719 C 1271.21875 885.753906 1271.445312 888.363281 1271.972656 891.582031 C 1302.332031 906.21875 1321.851562 937.140625 1321.851562 970.796875 C 1321.851562 1019.261719 1282.4375 1058.691406 1233.988281 1058.691406 C 1198.707031 1058.691406 1167.148438 1037.824219 1153.226562 1005.425781 L 1143.738281 1001.820312 C 1156.71875 1040.253906 1193.054688 1066.671875 1233.988281 1066.671875 C 1286.511719 1066.671875 1329.234375 1023.921875 1329.234375 971.390625 " fill-opacity="1" fill-rule="nonzero"/><path fill="#f6be0a" d="M 1134.085938 933.300781 C 1132.769531 937.117188 1131.511719 941.042969 1130.367188 944.9375 C 1125.03125 962.976562 1123.015625 977.578125 1124.445312 987.539062 L 1136.582031 982.730469 C 1137.613281 982.316406 1138.722656 982.121094 1139.808594 982.121094 C 1140.886719 982.121094 1141.9375 982.292969 1142.933594 982.671875 L 1164.515625 990.882812 L 1214.859375 975.171875 C 1217.964844 974.199219 1221.363281 975.136719 1223.617188 977.335938 C 1224.933594 970.589844 1230.851562 965.496094 1237.984375 965.496094 C 1239.507812 965.496094 1240.914062 965.792969 1242.289062 966.226562 C 1237.183594 954.96875 1230.625 940.425781 1222.679688 922.722656 L 1205.417969 931.746094 C 1203.894531 932.570312 1202.222656 932.925781 1200.378906 932.683594 L 1194.425781 934.710938 C 1192.617188 935.351562 1190.589844 935.351562 1188.769531 934.746094 L 1139.777344 918.265625 C 1138.21875 921.988281 1136.226562 927.152344 1134.085938 933.300781 " fill-opacity="1" fill-rule="nonzero"/><path fill="#f6be0a" d="M 731.632812 732.628906 C 733.304688 734.414062 733.683594 736.96875 732.628906 739.132812 L 726.035156 752.851562 C 725.863281 754 725.359375 755.085938 724.570312 755.933594 L 661.652344 886.773438 C 665.546875 888.214844 668.832031 890.882812 671.027344 894.308594 L 754.105469 721.519531 C 754.757812 720.167969 755.867188 719.136719 757.273438 718.613281 L 788.070312 706.542969 C 789.742188 705.867188 791.734375 706.039062 793.265625 707 C 794.847656 707.9375 795.867188 709.585938 796.046875 711.398438 C 796.367188 714.625 799 717.03125 802.171875 717.03125 C 805.628906 717.03125 808.410156 714.25 808.410156 710.789062 C 808.410156 709.472656 807.976562 708.203125 807.117188 707.089844 C 806.042969 705.660156 805.6875 703.804688 806.121094 702.074219 C 806.570312 700.34375 807.769531 698.914062 809.40625 698.179688 L 877.371094 667.925781 L 863.679688 661.066406 L 566.671875 780.441406 C 569.71875 783.167969 571.824219 786.832031 572.613281 790.90625 L 725.210938 731.164062 C 727.441406 730.28125 730.054688 730.898438 731.632812 732.628906 " fill-opacity="1" fill-rule="nonzero"/><path fill="#f6be0a" d="M 644.859375 888.6875 L 569.476562 805.488281 C 567.164062 808.761719 563.820312 811.222656 560.019531 812.484375 L 637.441406 897.972656 C 638.847656 894.195312 641.460938 890.90625 644.859375 888.6875 " fill-opacity="1" fill-rule="nonzero"/><path fill="#f6be0a" d="M 623.050781 924.394531 C 631.109375 922.570312 637.441406 920.785156 640.988281 919.355469 L 611.476562 886.773438 L 601.839844 890.230469 C 603.910156 890.300781 605.789062 891.46875 606.820312 893.289062 L 622.320312 921.632812 C 622.789062 922.480469 623.050781 923.453125 623.050781 924.394531 " fill-opacity="1" fill-rule="nonzero"/><path fill="#f6be0a" d="M 593.539062 918.230469 L 594.042969 918.359375 L 607.230469 918.472656 L 598.667969 902.875 L 568.984375 910.054688 C 570.734375 912.425781 571.914062 915.21875 572.441406 918.117188 L 590.90625 918.324219 C 591.8125 918.082031 592.691406 918.058594 593.539062 918.230469 " fill-opacity="1" fill-rule="nonzero"/><path fill="#656263" d="M 591.019531 1061.417969 C 591.8125 1063.273438 591.984375 1064.875 591.523438 1066.113281 C 590.964844 1067.691406 589.351562 1069.007812 586.945312 1070.003906 C 588.46875 1068.574219 589.589844 1066.867188 590.289062 1064.964844 C 590.699219 1063.820312 590.929688 1062.617188 591.019531 1061.417969 " fill-opacity="1" fill-rule="nonzero"/><path fill="#f6be0a" d="M 561.015625 921.519531 C 561.015625 917.210938 557.523438 913.683594 553.222656 913.683594 C 548.90625 913.683594 545.390625 917.210938 545.390625 921.519531 C 545.390625 925.824219 548.90625 929.351562 553.222656 929.351562 C 554.035156 929.351562 554.859375 929.167969 555.738281 928.882812 C 556.003906 928.734375 556.289062 928.640625 556.585938 928.550781 C 559.289062 927.234375 561.015625 924.507812 561.015625 921.519531 " fill-opacity="1" fill-rule="nonzero"/><path fill="#2c2a2a" d="M 426.300781 863.285156 C 429.058594 861.359375 431.738281 859.644531 433.878906 858.316406 C 432.941406 852.152344 430.949219 842.269531 427.023438 833.863281 C 421.277344 821.519531 395.574219 791.824219 385.820312 782.03125 C 383.15625 779.386719 372.050781 774.875 363.957031 771.589844 C 351.089844 766.34375 337.753906 760.949219 331.101562 754.261719 C 330.519531 753.710938 329.933594 753.09375 329.351562 752.476562 C 314.195312 749.015625 298.75 747.253906 283.421875 747.253906 C 282.230469 747.253906 281.054688 747.332031 279.863281 747.34375 C 291.046875 756.871094 306.980469 767.648438 327.0625 773.949219 C 368.25 786.886719 419.261719 828.941406 426.300781 863.285156 " fill-opacity="1" fill-rule="nonzero"/><path fill="#3871c1" d="M 1229.214844 540.210938 L 1230.109375 541.449219 C 1231.859375 543.328125 1232.855469 546.019531 1238.078125 589.992188 L 1238.144531 590.304688 C 1238.304688 590.773438 1238.386719 591.300781 1238.398438 591.792969 L 1238.363281 592.535156 L 1238.410156 592.925781 C 1238.523438 593.75 1238.488281 594.5625 1238.269531 595.695312 L 1236.621094 647.105469 L 1240.171875 648.066406 C 1240.398438 648.125 1240.628906 648.203125 1240.925781 648.363281 L 1320.992188 688.414062 L 1319.675781 684.90625 C 1296.183594 622.390625 1279.941406 586.363281 1271.402344 577.820312 L 1230.371094 536.777344 L 1228.140625 538.65625 L 1228.574219 539.285156 C 1228.816406 539.640625 1229.03125 539.949219 1229.214844 540.210938 " fill-opacity="1" fill-rule="nonzero"/><path fill="#5a9fdc" d="M 1319.675781 684.90625 C 1296.183594 622.390625 1279.941406 586.363281 1271.402344 577.820312 L 1233.703125 540.121094 C 1251.082031 567.800781 1275.464844 609.246094 1276.09375 624.921875 C 1276.699219 640.359375 1280.042969 658.121094 1282.4375 669.117188 L 1320.992188 688.414062 L 1319.675781 684.90625 " fill-opacity="1" fill-rule="nonzero"/><path fill="#3871c1" d="M 1223.230469 764.109375 L 1222.417969 764.074219 L 1221.957031 764.742188 C 1220.296875 767.089844 1218.582031 769.457031 1216.839844 771.863281 L 1215.695312 773.457031 C 1207.683594 784.449219 1199.28125 795.707031 1189.984375 807.847656 L 1189.457031 808.53125 L 1202.292969 837.425781 C 1205.726562 845.15625 1209.570312 853.835938 1213.671875 863.011719 L 1228.964844 897.285156 C 1243.148438 929.042969 1252.488281 949.703125 1257.835938 961.441406 L 1259.632812 965.402344 L 1260.59375 961.152344 C 1263.25 949.4375 1265.503906 932.878906 1264.507812 927.851562 C 1264.050781 925.574219 1263.089844 922.195312 1261.992188 918.265625 L 1261.808594 917.625 C 1260.480469 913.007812 1258.96875 907.640625 1257.71875 902.359375 C 1256.597656 897.617188 1255.832031 893.175781 1255.441406 889.167969 C 1255.042969 884.78125 1255.132812 881.289062 1255.738281 878.480469 C 1255.933594 877.566406 1256.1875 876.648438 1256.542969 875.675781 C 1257.515625 872.859375 1259.140625 869.148438 1261.359375 864.648438 C 1265.070312 857.113281 1270.449219 847.207031 1277.351562 835.203125 C 1279.402344 831.597656 1281.417969 828.117188 1283.316406 824.898438 C 1287.425781 817.945312 1290.894531 812.199219 1292.773438 809.09375 L 1293.265625 808.28125 C 1293.644531 807.675781 1294.066406 807.160156 1294.546875 806.699219 L 1317.179688 785.582031 L 1315.519531 784.585938 C 1294.605469 771.964844 1252.730469 765.679688 1223.230469 764.109375 " fill-opacity="1" fill-rule="nonzero"/><path fill="#3871c1" d="M 960.503906 613.183594 L 878.449219 650.449219 L 895.515625 658.945312 L 923.378906 667.5 C 925.5 668.164062 927.179688 669.699219 927.984375 671.65625 L 928.464844 672.941406 L 966.367188 689.890625 L 1032.476562 688.949219 L 1050.449219 680.453125 C 1051.066406 680.167969 1051.707031 680.03125 1052.554688 680.03125 L 1261.648438 689.914062 L 1309.222656 692.351562 L 1237.253906 656.371094 C 1170.832031 638.195312 1090.894531 616.8125 1066.613281 611.109375 L 1066.292969 611.042969 L 1065.984375 611.109375 C 1061.921875 611.949219 1060.054688 612.578125 1059.171875 612.976562 C 1045.503906 619.449219 1020.296875 623.949219 1006.226562 623.949219 C 995.546875 623.949219 979.945312 617.296875 971.597656 613.332031 L 960.503906 613.183594 " fill-opacity="1" fill-rule="nonzero"/><path fill="#5a9fdc" d="M 1309.222656 692.351562 L 1237.253906 656.371094 C 1170.832031 638.195312 1090.894531 616.8125 1066.613281 611.109375 L 1066.292969 611.042969 L 1065.984375 611.109375 C 1061.921875 611.949219 1060.054688 612.578125 1059.171875 612.976562 C 1045.503906 619.449219 1020.296875 623.949219 1006.226562 623.949219 C 995.546875 623.949219 979.945312 617.296875 971.597656 613.332031 L 960.503906 613.183594 L 954.710938 615.816406 C 977.023438 626.503906 1007.085938 639.433594 1024.0625 640.554688 C 1053.367188 642.511719 1084.621094 629.8125 1084.621094 629.8125 L 1240.789062 688.929688 L 1261.648438 689.914062 L 1309.222656 692.351562 " fill-opacity="1" fill-rule="nonzero"/><path fill="#5a9fdc" d="M 1206.925781 760.570312 C 1208.929688 757.8125 1210.832031 755.144531 1212.800781 752.382812 L 1213.007812 752.097656 C 1228.746094 729.925781 1238.742188 713.949219 1242.722656 704.628906 C 1243.480469 702.886719 1244.84375 701.523438 1246.535156 700.78125 L 1252.304688 698.273438 L 1053.289062 688.871094 L 1035.726562 697.300781 C 1035.339844 697.472656 1034.925781 697.609375 1034.515625 697.664062 L 1033.757812 697.792969 L 978.285156 811.910156 L 951.449219 893.550781 L 1008.632812 996.539062 L 1076.367188 926.742188 C 1076.757812 926.25 1078.335938 924.324219 1080.878906 921.253906 L 1087.664062 913.03125 C 1101.78125 895.785156 1123.429688 869.136719 1146.289062 840.164062 C 1165.796875 815.472656 1182.945312 793.140625 1197.277344 773.777344 C 1200.597656 769.285156 1203.824219 764.867188 1206.925781 760.570312 " fill-opacity="1" fill-rule="nonzero"/><path fill="#ffffff" d="M 1103.796875 447.335938 C 1107.960938 450.964844 1175.960938 494.519531 1196.714844 507.230469 L 1207.144531 513.609375 L 1192.273438 498.664062 C 1185.644531 492.03125 1154.199219 457.058594 1126.449219 426.195312 C 1112.234375 410.390625 1098.746094 395.402344 1090.953125 386.835938 L 1089.839844 385.609375 L 1088.753906 386.878906 C 1080.820312 396.132812 1074.433594 404.78125 1070.472656 410.402344 L 1069.785156 411.386719 L 1070.597656 412.257812 C 1078.597656 420.765625 1100.886719 444.402344 1103.796875 447.335938 " fill-opacity="1" fill-rule="nonzero"/><path fill="#3871c1" d="M 770.496094 500.164062 C 775.796875 501.320312 802.960938 507.4375 817.628906 514.421875 C 832.980469 521.738281 935.539062 567.730469 943.769531 569.734375 C 946.355469 569.953125 955.925781 572.3125 986.847656 582.332031 L 987.832031 582.652344 L 989.867188 579.996094 L 988.757812 576.058594 C 988.175781 574.898438 984.785156 568.488281 975.339844 556.691406 C 968.253906 547.839844 914.964844 529.390625 879.386719 519.105469 L 849.152344 510.3125 C 849.027344 510.289062 848.273438 510.128906 847.070312 509.851562 C 841.277344 508.582031 823.660156 504.699219 815.15625 503.152344 C 803.464844 501.023438 782.425781 498.058594 769.730469 497.039062 L 768.152344 497.027344 L 768.152344 500.082031 L 769.617188 500.082031 C 769.972656 500.082031 770.257812 500.105469 770.496094 500.164062 " fill-opacity="1" fill-rule="nonzero"/><path fill="#8cc4ec" d="M 620.671875 639.238281 C 620.957031 641.183594 621.324219 643.441406 621.609375 645.007812 L 621.699219 645.457031 L 631.226562 654.984375 L 631.601562 655.085938 C 640.566406 657.550781 662.796875 663.929688 675.574219 670.125 C 680.175781 672.355469 686.675781 675.839844 693.558594 679.527344 L 695.160156 680.382812 C 704.789062 685.574219 722.726562 695.214844 728.347656 696.988281 L 728.816406 697.152344 L 729.285156 696.980469 C 740.734375 692.867188 815.199219 661.625 862.503906 641.609375 L 955.582031 599.191406 C 956.53125 598.753906 957.539062 598.527344 958.605469 598.527344 L 963.34375 598.527344 L 963.757812 598.171875 C 965.554688 596.613281 968.222656 595.996094 970.511719 596.601562 L 971.152344 596.773438 L 981.375 589.808594 L 978.511719 588.894531 C 959.613281 582.824219 945.417969 578.65625 943.082031 578.507812 C 936.488281 578.371094 818.933594 524.808594 813.847656 522.390625 C 800.511719 516.011719 774.996094 510.195312 770.015625 509.085938 L 769.671875 509.015625 L 701.136719 526.8125 L 700.769531 526.949219 C 683.839844 536.683594 671.625 544.484375 666.390625 548.925781 C 655.289062 558.339844 630.585938 599.328125 617.726562 622.058594 L 617.429688 622.597656 L 617.601562 623.183594 C 618.804688 627.328125 619.707031 632.90625 620.671875 639.238281 " fill-opacity="1" fill-rule="nonzero"/><path fill="#8cc4ec" d="M 530.828125 737.714844 L 480.460938 677.328125 C 479.222656 675.859375 479.132812 673.640625 480.21875 672.035156 C 481.285156 670.480469 483.425781 669.722656 485.257812 670.363281 L 535.109375 687.234375 C 535.71875 687.425781 536.289062 687.78125 536.769531 688.285156 C 545.6875 697.171875 554.617188 704.363281 557.054688 705.246094 L 557.457031 705.328125 C 561.828125 705.613281 576.917969 711.476562 599.9375 721.828125 C 600.179688 721.933594 600.429688 722.046875 600.625 722.195312 L 621.882812 736.84375 C 623.175781 737.757812 623.886719 739.292969 623.761719 740.863281 C 623.648438 742.132812 622.996094 743.300781 621.964844 744.046875 L 612.347656 751.007812 L 625.753906 745.636719 L 625.972656 744.984375 C 627.78125 739.476562 630.058594 734.953125 630.113281 734.851562 C 630.585938 733.886719 631.410156 733.132812 632.414062 732.730469 L 683.839844 712.289062 L 684.066406 711.671875 C 685.28125 708.328125 687.652344 704.042969 692 702.589844 C 693.648438 702.039062 696.109375 701.914062 698.871094 702.1875 L 706.300781 702.945312 L 697.175781 698.089844 C 694.472656 696.667969 691.441406 695.054688 687.992188 693.199219 C 680.082031 688.929688 673.683594 685.480469 669.207031 683.316406 C 661.9375 679.789062 649.929688 675.597656 633.515625 670.855469 L 633.207031 670.765625 L 632.898438 670.8125 C 632.335938 670.890625 631.613281 670.949219 630.675781 670.949219 C 611.890625 670.949219 502.257812 656.253906 469.09375 651.753906 C 468.441406 651.664062 467.765625 651.410156 467.089844 650.964844 C 450.308594 639.351562 395.070312 600.964844 388.914062 594.804688 C 385.628906 591.515625 382.972656 582.308594 377.738281 563.460938 L 377.636719 563.09375 C 372.1875 543.554688 363.957031 514.03125 355.335938 505.066406 C 335.085938 490.855469 245.300781 473.59375 193.59375 464.570312 L 186.105469 463.265625 L 192.574219 467.261719 C 206.265625 475.738281 229.941406 490.222656 234.53125 492.066406 C 241.019531 494.644531 326.109375 538.117188 334.707031 551.628906 C 337.101562 555.304688 360.097656 580.601562 379.410156 601.640625 L 380.0625 602.351562 C 380.179688 602.464844 380.292969 602.589844 380.40625 602.71875 L 381.402344 603.804688 L 381.402344 603.792969 C 410.492188 635.414062 449.527344 677.394531 486.09375 716.425781 L 530.828125 737.714844 " fill-opacity="1" fill-rule="nonzero"/><path fill="#3871c1" d="M 361.402344 498.664062 C 371.628906 508.71875 379.710938 537.75 386.199219 561.078125 C 390.492188 576.5625 393.480469 586.546875 395.1875 588.632812 C 398.253906 591.722656 418.8125 606.40625 435.550781 618.175781 L 435.585938 618.199219 C 445.566406 625.265625 457.152344 633.375 471.027344 642.980469 L 471.3125 643.175781 L 471.667969 643.222656 C 516.644531 649.351562 580.570312 657.640625 612.703125 660.882812 L 616.800781 661.292969 L 610.046875 654.550781 C 609.726562 654.214844 609.453125 653.863281 609.164062 653.484375 L 608.753906 652.921875 L 608.054688 652.886719 C 583.429688 651.675781 500.800781 646.886719 471.632812 636.410156 C 463.414062 633.429688 448.488281 623.546875 437.394531 615.75 L 437.335938 615.714844 C 432.09375 612.027344 426.644531 608.054688 421.136719 603.90625 L 420.761719 603.65625 C 420.667969 603.554688 420.554688 603.449219 420.222656 603.164062 C 418.574219 601.570312 404.046875 587.417969 400.359375 580.601562 C 396.035156 572.5625 394.921875 566.082031 397.039062 561.339844 C 397.738281 559.761719 399.398438 557.746094 401.964844 555.363281 L 402.546875 554.835938 L 397.007812 521.121094 C 395.609375 510.5625 391.097656 493.234375 385.84375 489.535156 L 385.570312 489.386719 C 379.847656 486.949219 339.277344 480.605469 306.238281 475.703125 L 305.664062 478.578125 C 334.515625 485.90625 353.105469 492.527344 360.910156 498.238281 C 361.09375 498.367188 361.242188 498.503906 361.402344 498.664062 " fill-opacity="1" fill-rule="nonzero"/><path fill="#f6be0a" d="M 239.703125 939.933594 C 240.171875 936.382812 242.691406 933.507812 246.148438 932.570312 L 291.929688 920.222656 C 299.199219 917.96875 317.855469 912.140625 340.453125 904.867188 C 326.179688 890.53125 306.753906 882.375 286.503906 882.375 C 244.476562 882.375 210.308594 916.558594 210.308594 958.601562 C 210.308594 1000.617188 244.476562 1034.800781 286.503906 1034.800781 C 318.796875 1034.800781 347.105469 1014.828125 358.074219 984.699219 C 352.875 984.492188 351.273438 985.339844 347.875 987.253906 C 344.4375 989.152344 339.78125 991.789062 331.25 994.019531 C 326.421875 995.316406 319.003906 995.921875 308.597656 995.921875 C 283.011719 995.921875 248.667969 992.109375 242.050781 991.320312 C 239.726562 991.054688 237.5625 989.851562 236.121094 988.007812 C 234.691406 986.164062 234.050781 983.785156 234.335938 981.46875 L 239.703125 939.933594 " fill-opacity="1" fill-rule="nonzero"/><path fill="#ffffff" d="M 686.847656 535.171875 C 677.164062 541.058594 670.042969 545.824219 666.390625 548.925781 C 662.144531 552.523438 655.90625 560.746094 649.105469 570.789062 C 661.6875 581.703125 679.214844 592.25 703.644531 600.496094 C 775.683594 624.820312 770.601562 676.066406 728.53125 668.96875 C 738.707031 674.554688 749.582031 679.664062 761.246094 684.070312 C 790.164062 672.105469 831.984375 654.527344 862.503906 641.609375 L 908.523438 620.640625 C 855.597656 609.828125 753.464844 583.925781 686.847656 535.171875 " fill-opacity="1" fill-rule="nonzero"/><path fill="#d3d2d2" d="M 703.644531 600.496094 C 679.214844 592.25 661.6875 581.703125 649.105469 570.789062 C 645.398438 576.273438 641.527344 582.285156 637.714844 588.414062 C 656.925781 614.488281 686.507812 645.902344 728.53125 668.96875 C 770.601562 676.066406 775.683594 624.820312 703.644531 600.496094 " fill-opacity="1" fill-rule="nonzero"/><path fill="#579ed1" d="M 273.828125 493.980469 C 277.503906 503.347656 282.230469 512.003906 287.578125 519.839844 C 297.5625 525.460938 307.394531 531.234375 315.535156 536.46875 C 307.851562 525.335938 294.894531 510.148438 273.828125 493.980469 " fill-opacity="1" fill-rule="nonzero"/><path fill="#579ed1" d="M 684.066406 711.671875 C 685.28125 708.328125 687.652344 704.042969 692 702.589844 C 693.648438 702.039062 696.109375 701.914062 698.871094 702.1875 L 706.300781 702.945312 L 697.175781 698.089844 C 694.472656 696.667969 691.441406 695.054688 687.992188 693.199219 C 680.082031 688.929688 673.683594 685.480469 669.207031 683.316406 C 661.9375 679.789062 649.929688 675.597656 633.515625 670.855469 L 633.207031 670.765625 L 632.898438 670.8125 C 632.335938 670.890625 631.613281 670.949219 630.675781 670.949219 C 612.566406 670.949219 509.949219 657.285156 472.925781 652.269531 C 506.730469 676.296875 575.109375 675.5625 603.03125 690.394531 C 621.964844 700.472656 640.898438 714.832031 652.882812 724.589844 L 683.839844 712.289062 L 684.066406 711.671875 " fill-opacity="1" fill-rule="nonzero"/><path fill="#3871c1" d="M 1076.367188 926.742188 C 1076.757812 926.25 1078.335938 924.324219 1080.878906 921.253906 L 1087.664062 913.03125 C 1101.78125 895.785156 1123.429688 869.136719 1146.289062 840.164062 C 1165.796875 815.472656 1182.945312 793.140625 1197.277344 773.777344 C 1200.597656 769.285156 1203.824219 764.867188 1206.925781 760.570312 C 1208.929688 757.8125 1210.832031 755.144531 1212.800781 752.382812 L 1213.007812 752.097656 C 1228.746094 729.925781 1238.742188 713.949219 1242.722656 704.628906 C 1243.480469 702.886719 1244.84375 701.523438 1246.535156 700.78125 L 1252.304688 698.273438 L 1053.289062 688.871094 L 1035.726562 697.300781 C 1035.339844 697.472656 1034.925781 697.609375 1034.515625 697.664062 L 1033.757812 697.792969 L 1018.773438 728.609375 C 1032.578125 722.070312 1051.433594 715.507812 1067.039062 718.738281 C 1118.816406 725.574219 1153.980469 751.960938 1153.980469 751.960938 C 1153.980469 751.960938 1050.792969 940.253906 1002.253906 985.066406 L 1008.632812 996.539062 L 1076.367188 926.742188 " fill-opacity="1" fill-rule="nonzero"/><path fill="#275593" d="M 1315.519531 784.585938 C 1294.605469 771.964844 1252.730469 765.679688 1223.230469 764.109375 L 1222.417969 764.074219 L 1221.957031 764.742188 C 1220.296875 767.089844 1218.582031 769.457031 1216.839844 771.863281 L 1215.695312 773.457031 C 1213.554688 776.398438 1211.378906 779.363281 1209.171875 782.351562 C 1232.671875 783.453125 1265.332031 788.171875 1298.3125 803.183594 L 1317.179688 785.582031 L 1315.519531 784.585938 " fill-opacity="1" fill-rule="nonzero"/><path fill="#8cc4ec" d="M 601.1875 1069.59375 C 598.246094 1077.667969 588.445312 1082.292969 574.285156 1082.292969 C 564.613281 1082.292969 553.734375 1080.222656 542.847656 1076.28125 C 520.527344 1068.183594 504.410156 1054.785156 501.785156 1042.152344 L 501.441406 1038.523438 C 501.464844 1036.863281 501.707031 1035.304688 502.257812 1033.804688 C 505.164062 1025.730469 514.964844 1021.105469 529.125 1021.105469 C 538.820312 1021.105469 549.707031 1023.191406 560.605469 1027.117188 C 588.789062 1037.320312 606.234375 1055.585938 601.1875 1069.59375 Z M 951.851562 1084.59375 C 952.136719 1084.585938 952.433594 1084.574219 952.730469 1084.5625 C 955.503906 1084.421875 958.238281 1084.296875 960.941406 1084.160156 C 961.226562 1084.148438 961.511719 1084.125 961.789062 1084.113281 C 964.558594 1083.976562 967.28125 1083.828125 969.949219 1083.679688 C 970.03125 1083.667969 970.109375 1083.667969 970.191406 1083.667969 C 975.683594 1083.359375 980.984375 1083.027344 986.054688 1082.683594 C 986.285156 1082.671875 986.515625 1082.648438 986.730469 1082.636719 C 989.101562 1082.476562 991.425781 1082.304688 993.691406 1082.132812 C 993.988281 1082.109375 994.296875 1082.085938 994.609375 1082.066406 C 996.816406 1081.894531 998.980469 1081.722656 1001.085938 1081.550781 C 1001.394531 1081.527344 1001.695312 1081.492188 1001.992188 1081.46875 C 1004.109375 1081.285156 1006.171875 1081.101562 1008.160156 1080.917969 C 1008.378906 1080.894531 1008.597656 1080.875 1008.8125 1080.863281 C 1010.863281 1080.65625 1012.867188 1080.460938 1014.789062 1080.253906 C 1014.859375 1080.242188 1014.925781 1080.242188 1015.007812 1080.230469 C 1016.917969 1080.027344 1018.773438 1079.808594 1020.535156 1079.601562 C 1020.652344 1079.578125 1020.777344 1079.566406 1020.890625 1079.554688 C 1022.621094 1079.351562 1024.257812 1079.132812 1025.835938 1078.902344 C 1026.042969 1078.882812 1026.25 1078.847656 1026.457031 1078.824219 C 1027.964844 1078.605469 1029.398438 1078.386719 1030.769531 1078.160156 C 1030.988281 1078.125 1031.207031 1078.089844 1031.421875 1078.054688 C 1032.761719 1077.828125 1034.023438 1077.609375 1035.210938 1077.371094 C 1035.394531 1077.335938 1035.578125 1077.300781 1035.761719 1077.265625 C 1036.941406 1077.027344 1038.050781 1076.785156 1039.082031 1076.535156 C 1039.183594 1076.511719 1039.289062 1076.488281 1039.402344 1076.453125 C 1040.457031 1076.199219 1041.441406 1075.925781 1042.296875 1075.664062 L 1043.71875 1075.214844 L 1043.261719 1073.808594 C 1036.324219 1052.265625 1030.128906 1035.488281 1024.851562 1023.957031 L 1023.582031 1021.175781 L 1022.207031 1023.910156 C 1022.023438 1024.289062 1021.808594 1024.609375 1021.542969 1024.964844 C 1019.894531 1027.082031 1017.035156 1028.183594 1014.367188 1027.679688 L 885.796875 1002.65625 C 885.214844 1002.507812 884.800781 1002.371094 884.414062 1002.164062 C 874.15625 997.34375 856.308594 989.820312 849.1875 988.867188 C 848.902344 988.832031 848.546875 988.832031 848.125 988.832031 C 839.6875 988.832031 814.261719 997.308594 800.605469 1001.867188 L 799.425781 1002.242188 C 794.035156 1004.03125 789.066406 1005.667969 784.921875 1006.949219 C 774.011719 1010.304688 742.09375 1014.039062 715.71875 1014.039062 C 711.449219 1014.039062 707.558594 1013.9375 703.996094 1013.753906 C 692.550781 1013.15625 684.71875 1011.589844 680.714844 1009.082031 C 672.503906 1003.949219 672.34375 1003.859375 668.246094 1003.390625 L 666.609375 1003.171875 C 665.773438 1003.070312 664.847656 1002.953125 663.792969 1002.804688 C 658.917969 1002.09375 653.824219 1000.996094 645.992188 999.265625 L 645.488281 999.164062 C 637.179688 997.332031 625.800781 994.835938 609.257812 991.753906 C 605.558594 991.078125 601.253906 990.734375 596.46875 990.734375 C 565.09375 990.734375 519.347656 1004.625 519.003906 1004.742188 C 518.558594 1004.867188 518.101562 1004.96875 517.652344 1005.027344 L 501.707031 1006.859375 L 501.328125 1007.421875 C 499.75 1009.746094 498.304688 1012.21875 497.265625 1014.453125 C 497.058594 1015.195312 496.828125 1015.941406 496.601562 1016.695312 L 496.304688 1017.679688 L 496.304688 1017.933594 C 496.382812 1020.636719 497.183594 1028.378906 498.488281 1039.199219 L 498.800781 1039.175781 L 498.890625 1042.636719 C 499.453125 1047.125 500.035156 1051.761719 500.617188 1056.113281 L 504.257812 1087.058594 L 505.585938 1087.046875 C 516.097656 1086.898438 543.984375 1086.554688 574.296875 1086.335938 C 587.015625 1086.257812 599.925781 1086.199219 611.890625 1086.199219 C 641.105469 1086.199219 658.722656 1086.53125 664.25 1087.207031 C 670.683594 1088.007812 705.246094 1088.570312 748.3125 1088.570312 C 802.011719 1088.570312 879.832031 1087.675781 942.703125 1085.007812 C 942.886719 1084.996094 943.082031 1084.996094 943.265625 1084.984375 C 946.160156 1084.859375 949.023438 1084.734375 951.851562 1084.59375 " fill-opacity="1" fill-rule="nonzero"/><path fill="#f6be0a" d="M 284.382812 959.996094 C 284.382812 963.03125 281.921875 965.496094 278.890625 965.496094 C 275.855469 965.496094 273.394531 963.03125 273.394531 959.996094 C 273.394531 956.960938 275.855469 954.5 278.890625 954.5 C 281.921875 954.5 284.382812 956.960938 284.382812 959.996094 " fill-opacity="1" fill-rule="nonzero"/><path fill="#3871c1" d="M 770.222656 498.5625 L 770.222656 498.652344 C 770.015625 498.617188 769.820312 498.617188 769.617188 498.617188 C 769.113281 498.617188 768.621094 498.675781 768.117188 498.789062 L 745.105469 504.777344 C 753.144531 500.78125 758.292969 498.5625 759.792969 498.261719 C 760.171875 498.183594 760.902344 498.113281 762.289062 498.113281 C 764.191406 498.113281 766.683594 498.261719 769.617188 498.503906 C 769.820312 498.527344 770.015625 498.527344 770.222656 498.5625 " fill-opacity="1" fill-rule="nonzero"/><path fill="#b9b9ba" d="M 183.953125 790.070312 C 183.953125 790.070312 72.589844 836.992188 88.21875 983.578125 C 95.0625 948.394531 106.785156 844.800781 183.953125 790.070312 " fill-opacity="1" fill-rule="nonzero"/><path fill="#b9b9ba" d="M 1392.480469 1025.859375 C 1397.289062 982.121094 1424.476562 953.320312 1376.113281 874.65625 C 1393.421875 878.917969 1439.40625 930.945312 1392.480469 1025.859375 " fill-opacity="1" fill-rule="nonzero"/><path fill="#ffffff" d="M 1227.714844 783.683594 C 1224.316406 780.050781 1226.570312 767.019531 1242.371094 770.179688 C 1258.179688 773.328125 1297.261719 779.652344 1296.402344 791.433594 C 1295.542969 803.230469 1236.347656 792.878906 1227.714844 783.683594 " fill-opacity="1" fill-rule="nonzero"/><path fill="#ffffff" d="M 305.082031 494.953125 C 305.082031 494.953125 332.921875 499.351562 346.109375 512.542969 C 359.296875 525.738281 362.226562 544.792969 354.902344 544.792969 C 347.574219 544.792969 321.199219 497.886719 305.082031 494.953125 " fill-opacity="1" fill-rule="nonzero"/><path fill="#252424" d="M 512.421875 1036.792969 C 512.535156 1036.441406 512.683594 1036.085938 512.855469 1035.765625 C 512.421875 1036.234375 512.101562 1036.761719 511.894531 1037.289062 C 511.632812 1038.019531 511.574219 1038.84375 511.722656 1039.785156 C 511.835938 1038.789062 512.066406 1037.757812 512.421875 1036.792969 Z M 579.265625 1060.980469 C 580.261719 1058.222656 573.058594 1048.40625 554.652344 1041.753906 C 547.53125 1039.164062 540.261719 1037.734375 534.171875 1037.734375 C 527.542969 1037.734375 523.914062 1039.519531 523.445312 1040.78125 C 522.472656 1043.503906 529.648438 1053.332031 548.058594 1060.007812 C 555.179688 1062.597656 562.449219 1064.003906 568.539062 1064.003906 C 575.199219 1064.003906 578.796875 1062.242188 579.265625 1060.980469 Z M 591.523438 1066.113281 C 591.984375 1064.875 591.8125 1063.273438 591.019531 1061.417969 C 590.929688 1062.617188 590.699219 1063.820312 590.289062 1064.964844 C 589.589844 1066.867188 588.46875 1068.574219 586.945312 1070.003906 C 589.351562 1069.007812 590.964844 1067.691406 591.523438 1066.113281 Z M 561.097656 1025.742188 C 590.082031 1036.234375 607.90625 1055.289062 602.570312 1070.097656 C 599.402344 1078.777344 589.121094 1083.757812 574.285156 1083.757812 C 564.441406 1083.757812 553.394531 1081.652344 542.347656 1077.667969 C 519.074219 1069.214844 503.011719 1055.289062 500.34375 1042.453125 L 499.945312 1039.015625 C 499.910156 1037.058594 500.207031 1035.15625 500.871094 1033.300781 C 504.007812 1024.632812 514.320312 1019.640625 529.125 1019.640625 C 538.96875 1019.640625 550.050781 1021.757812 561.097656 1025.742188 " fill-opacity="1" fill-rule="nonzero"/><g clip-path="url(#f83e45a892)"><path fill="#252424" d="M 207 908.910156 L 198.824219 905.1875 C 189.4375 920.40625 184.171875 937.734375 183.554688 955.589844 L 192.78125 955.40625 C 193.339844 938.84375 198.230469 922.894531 207 908.910156 Z M 202.890625 1019.351562 L 209.78125 1012.460938 C 201.515625 1000.710938 196.066406 987.160156 193.867188 972.972656 L 184.433594 973.179688 C 186.691406 989.796875 193.019531 1005.65625 202.890625 1019.351562 Z M 239.992188 877.164062 L 236.363281 869.25 C 226.21875 874.910156 217.253906 882.113281 209.574219 890.769531 L 218.011719 894.570312 C 224.46875 887.6875 231.851562 881.847656 239.992188 877.164062 Z M 267.867188 1060.601562 L 268.804688 1050.71875 C 250.808594 1047.261719 234.449219 1038.730469 221.238281 1025.859375 L 214.382812 1032.71875 C 229.058594 1047.113281 247.84375 1056.90625 267.867188 1060.601562 Z M 306.457031 866.960938 L 309.25 858.714844 C 290.3125 854.445312 270.53125 855.589844 252.367188 862.003906 L 255.996094 869.894531 C 272.113281 864.316406 289.640625 863.261719 306.457031 866.960938 Z M 345.261719 1043.769531 L 338.199219 1036.703125 C 322.722656 1047.019531 304.933594 1052.359375 286.296875 1052.390625 L 285.359375 1062.277344 C 285.734375 1062.277344 286.125 1062.277344 286.503906 1062.277344 C 307.691406 1062.277344 327.941406 1055.90625 345.261719 1043.769531 Z M 358.074219 984.699219 C 352.875 984.492188 351.273438 985.339844 347.875 987.253906 C 344.4375 989.152344 339.78125 991.789062 331.25 994.019531 C 326.421875 995.316406 319.003906 995.921875 308.597656 995.921875 C 283.011719 995.921875 248.667969 992.109375 242.050781 991.320312 C 239.726562 991.054688 237.5625 989.851562 236.121094 988.007812 C 234.691406 986.164062 234.050781 983.785156 234.335938 981.46875 L 239.703125 939.933594 C 240.171875 936.382812 242.691406 933.507812 246.148438 932.570312 L 291.929688 920.222656 C 299.199219 917.96875 317.855469 912.140625 340.453125 904.867188 C 326.179688 890.53125 306.753906 882.375 286.503906 882.375 C 244.476562 882.375 210.308594 916.558594 210.308594 958.601562 C 210.308594 1000.617188 244.476562 1034.800781 286.503906 1034.800781 C 318.796875 1034.800781 347.105469 1014.828125 358.074219 984.699219 Z M 358.769531 898.945312 C 361.757812 897.972656 364.746094 897.011719 367.769531 896.015625 C 356.78125 881.882812 342.445312 870.910156 326.007812 864.050781 L 323.191406 872.320312 C 336.996094 878.21875 349.210938 887.367188 358.769531 898.945312 Z M 384.644531 990.449219 C 382.273438 989.566406 379.320312 988.511719 375.65625 987.539062 C 370.996094 1001.878906 362.871094 1014.957031 351.972656 1025.59375 L 358.828125 1032.488281 C 370.722656 1020.691406 379.605469 1006.242188 384.644531 990.449219 Z M 405.925781 992.578125 C 404.664062 992.613281 403.464844 992.648438 402.351562 992.671875 C 396.171875 1014.097656 384.152344 1033.335938 367.503906 1048.488281 C 367.058594 1049.667969 366.394531 1050.71875 365.515625 1051.601562 C 364.3125 1052.828125 362.730469 1053.652344 361.003906 1053.972656 C 339.550781 1070.921875 313.816406 1079.867188 286.503906 1079.867188 C 282.953125 1079.867188 279.347656 1079.71875 275.476562 1079.328125 C 275.476562 1079.363281 275.214844 1079.328125 274.929688 1079.328125 L 274.609375 1079.269531 C 212.621094 1073.179688 165.878906 1021.609375 165.878906 959.21875 C 165.878906 934.242188 173.503906 910.261719 187.914062 889.832031 C 188.234375 889.234375 188.648438 888.707031 189.09375 888.214844 C 211.773438 857.136719 248.199219 838.582031 286.503906 838.582031 C 325.917969 838.582031 362.730469 857.84375 385.351562 890.207031 L 387.640625 889.476562 C 364.402344 856.402344 326.890625 836.796875 286.503906 836.796875 C 218.308594 836.796875 162.800781 892.316406 162.800781 960.535156 C 162.800781 1028.753906 218.308594 1084.261719 286.503906 1084.261719 C 342.882812 1084.261719 391.441406 1046.757812 405.925781 992.578125 Z M 427.8125 991.765625 C 424.480469 991.914062 421.21875 992.050781 418.148438 992.175781 C 403.632812 1052.449219 348.664062 1095.988281 286.503906 1095.988281 C 211.828125 1095.988281 151.078125 1035.214844 151.078125 960.535156 C 151.078125 885.835938 211.828125 825.070312 286.503906 825.070312 C 331.960938 825.070312 373.929688 847.664062 399.179688 885.570312 C 403.554688 884.105469 407.824219 882.640625 411.957031 881.242188 C 385.261719 835.503906 336.324219 807.238281 283.421875 807.238281 C 201.402344 807.238281 134.671875 873.992188 134.671875 956.058594 C 134.671875 1038.113281 201.402344 1104.898438 283.421875 1104.898438 C 351.445312 1104.898438 411.578125 1057.523438 427.8125 991.765625 Z M 487.488281 983.40625 C 485.429688 984.253906 483.355469 985.078125 481.15625 985.925781 C 476.050781 987.859375 464.59375 989.453125 446.128906 990.710938 C 429.871094 1067.199219 361.816406 1122.488281 283.421875 1122.488281 C 191.691406 1122.488281 117.089844 1047.8125 117.089844 956.058594 C 117.089844 864.316406 191.691406 789.648438 283.421875 789.648438 C 340.226562 789.648438 392.117188 818.027344 423.015625 865.703125 C 423.507812 865.289062 424.011719 864.910156 424.539062 864.523438 C 427.902344 862.09375 431.269531 859.917969 433.878906 858.316406 C 432.941406 852.152344 430.949219 842.269531 427.023438 833.863281 C 421.277344 821.519531 395.574219 791.824219 385.820312 782.03125 C 383.15625 779.386719 372.050781 774.875 363.957031 771.589844 C 351.089844 766.34375 337.753906 760.949219 331.101562 754.261719 C 330.519531 753.710938 329.933594 753.09375 329.351562 752.476562 C 314.195312 749.015625 298.75 747.253906 283.421875 747.253906 C 169.691406 747.253906 77.171875 839.808594 77.171875 953.597656 C 77.171875 1067.371094 169.691406 1159.925781 283.421875 1159.925781 C 373.160156 1159.925781 454.1875 1099.941406 480.5625 1014.039062 C 480.824219 1012.632812 481.273438 1011.164062 481.855469 1009.640625 C 484.285156 1001.054688 486.195312 992.199219 487.488281 983.40625 Z M 561.015625 921.519531 C 561.015625 917.210938 557.523438 913.683594 553.222656 913.683594 C 548.90625 913.683594 545.390625 917.210938 545.390625 921.519531 C 545.390625 925.824219 548.90625 929.351562 553.222656 929.351562 C 554.035156 929.351562 554.859375 929.167969 555.738281 928.882812 C 556.003906 928.734375 556.289062 928.640625 556.585938 928.550781 C 559.289062 927.234375 561.015625 924.507812 561.015625 921.519531 Z M 561.246094 794.550781 C 561.246094 790.585938 558.015625 787.359375 554.066406 787.359375 C 550.105469 787.359375 546.890625 790.585938 546.890625 794.550781 C 546.890625 798.5 550.105469 801.730469 554.066406 801.730469 C 558.015625 801.730469 561.246094 798.5 561.246094 794.550781 Z M 590.757812 930.050781 L 586.796875 929.992188 L 587.152344 930.28125 C 588.148438 930.109375 589.027344 930.199219 590.757812 930.050781 Z M 600.921875 792.410156 L 580.671875 800.355469 L 590.230469 810.902344 L 597.109375 812.953125 C 598.757812 805.335938 600.429688 796.953125 600.921875 792.410156 Z M 602.972656 877.394531 L 602.628906 876.980469 C 601.78125 877.039062 600.980469 876.902344 600.191406 876.695312 C 599.8125 876.582031 562.972656 866.136719 540.847656 863.296875 C 527.429688 861.589844 509.605469 864.292969 488.1875 871.300781 C 484.523438 872.503906 480.824219 873.785156 477.195312 875.113281 C 471.222656 877.371094 464.914062 879.890625 458.527344 882.671875 C 452.960938 885.101562 444.546875 888.332031 433.617188 892.257812 C 430.101562 893.519531 426.382812 894.835938 422.511719 896.1875 C 416.914062 898.15625 410.996094 900.171875 404.929688 902.234375 L 391.304688 906.800781 C 387.550781 908.0625 383.773438 909.289062 379.984375 910.558594 C 375.152344 912.140625 370.34375 913.683594 365.59375 915.242188 L 354.144531 918.964844 C 323.191406 928.941406 297.527344 936.910156 296.460938 937.265625 L 272.640625 943.65625 L 256.371094 948.019531 L 252.914062 974.816406 C 258.101562 975.34375 266.457031 976.132812 275.890625 976.808594 C 286.742188 977.65625 298.957031 978.332031 309.304688 978.332031 C 317.570312 978.332031 323.457031 977.898438 326.765625 977.015625 C 333.128906 975.34375 336.265625 973.589844 339.253906 971.917969 C 345.378906 968.484375 350.882812 966.171875 363.636719 967.488281 L 365.042969 967.660156 C 369.199219 968.164062 373.21875 968.859375 376.914062 969.71875 C 383.304688 971.207031 388.191406 972.996094 391.421875 974.175781 L 391.707031 974.289062 C 392.472656 974.554688 393.9375 975.113281 394.554688 975.285156 C 396.023438 975.25 398.839844 975.195312 402.558594 975.113281 C 405.226562 975.023438 408.363281 974.929688 411.785156 974.816406 L 417.738281 974.585938 C 422.71875 974.382812 428.074219 974.140625 433.5 973.855469 C 437.484375 973.648438 441.503906 973.40625 445.371094 973.144531 C 466.527344 971.710938 472.914062 970.246094 474.828125 969.515625 C 480.011719 967.519531 484.636719 965.585938 489.539062 963.558594 L 491.117188 962.882812 C 494.871094 961.324219 498.742188 959.746094 503.070312 958.015625 C 506.386719 956.699219 509.960938 955.324219 514 953.824219 C 523.707031 950.21875 539.359375 945.03125 551.664062 941.011719 C 541.613281 940.21875 533.667969 931.78125 533.667969 921.519531 C 533.667969 911.144531 542.023438 902.460938 552.363281 902.027344 L 574.285156 896.714844 L 575.257812 890.5625 C 575.601562 888.421875 577.042969 886.660156 579.070312 885.960938 Z M 604.851562 642.445312 C 604.828125 642.179688 604.769531 641.953125 604.734375 641.6875 C 604.207031 638.195312 603.007812 630.316406 601.976562 627.109375 L 596.117188 621.636719 C 593.722656 620.136719 579.652344 612.015625 558.257812 611.226562 C 536.242188 610.4375 465.234375 589.238281 452.492188 582.433594 L 452.402344 582.585938 C 451.964844 582.320312 449.449219 581.265625 447.949219 580.589844 C 436.84375 575.839844 427.320312 571.53125 422.925781 567.136719 C 421.777344 565.992188 415.414062 564.433594 409.941406 564.351562 C 409.210938 564.316406 408.476562 564.226562 407.765625 564.019531 C 406.621094 565.144531 406.359375 565.578125 406.359375 565.578125 C 406.015625 566.402344 406.128906 569.679688 409.382812 575.722656 C 411.523438 579.675781 421.34375 589.9375 427.113281 595.535156 C 429.894531 597.65625 462.714844 622.3125 475.089844 626.730469 C 501.375 636.179688 576.929688 640.957031 604.851562 642.445312 Z M 607.230469 918.472656 L 598.667969 902.875 L 568.984375 910.054688 C 570.734375 912.425781 571.914062 915.21875 572.441406 918.117188 L 590.90625 918.324219 C 591.8125 918.082031 592.691406 918.058594 593.539062 918.230469 L 594.042969 918.359375 Z M 594.914062 745.445312 L 607.644531 739.488281 L 595.246094 730.957031 C 575.316406 722.011719 559.367188 715.769531 557 715.566406 C 557 715.566406 557 715.566406 556.964844 715.566406 C 552.226562 715.566406 543.285156 709.140625 530.507812 696.507812 L 501.671875 686.753906 L 550.667969 745.464844 L 557.9375 748.902344 C 560.078125 749.898438 561.65625 751.683594 562.449219 753.882812 C 563.238281 756.105469 563.125 758.488281 562.128906 760.628906 C 561.210938 762.53125 559.667969 764.03125 557.789062 764.84375 C 556.679688 765.371094 555.441406 765.632812 554.183594 765.632812 C 552.867188 765.632812 551.605469 765.371094 550.429688 764.820312 L 524.203125 752.382812 L 513.1875 787.863281 L 532.96875 793.78125 C 532.914062 792.257812 533.050781 790.738281 533.40625 789.234375 C 534.722656 783.613281 538.738281 778.976562 544.097656 776.867188 L 560.042969 770.445312 L 595.097656 756.378906 C 594.386719 755.820312 593.894531 755.441406 593.722656 755.292969 C 592.132812 754.03125 591.339844 752.039062 591.582031 750.046875 C 591.84375 748.019531 593.105469 746.292969 594.914062 745.445312 Z M 609.484375 975.457031 L 609.863281 965.90625 L 592.75 964.441406 C 591.71875 964.347656 590.722656 963.992188 589.910156 963.386719 L 574 952.265625 C 573.90625 952.300781 573.792969 952.335938 573.699219 952.394531 C 573.347656 952.472656 536.839844 964.121094 520.125 970.328125 C 515.410156 972.054688 510.933594 973.785156 506.148438 975.753906 C 505.65625 980.566406 505.003906 985.457031 504.191406 990.355469 L 515.03125 989.097656 C 521.066406 987.308594 564.472656 974.644531 596.585938 974.644531 C 601.3125 974.644531 605.640625 974.90625 609.484375 975.457031 Z M 612.851562 659.425781 L 609.015625 655.578125 C 608.640625 655.203125 608.308594 654.789062 607.988281 654.355469 C 581.269531 653.039062 500.34375 648.285156 471.128906 637.78125 C 463.390625 634.976562 449.917969 626.261719 438.6875 618.464844 C 437.953125 617.9375 437.222656 617.410156 436.488281 616.917969 C 427.46875 610.550781 420.40625 605.191406 419.730469 604.6875 C 419.582031 604.539062 419.375 604.390625 419.203125 604.21875 C 416.480469 601.582031 402.730469 588.070312 399.066406 581.289062 C 394.523438 572.851562 393.378906 565.933594 395.703125 560.746094 C 396.492188 558.949219 398.21875 556.839844 400.96875 554.285156 L 395.550781 521.304688 C 393.9375 509.085938 389.246094 493.714844 384.996094 490.726562 C 380.523438 488.828125 351.914062 483.960938 306.019531 477.15625 C 331.664062 483.660156 352.910156 490.554688 361.792969 497.0625 C 362.023438 497.242188 362.226562 497.414062 362.433594 497.621094 C 372.921875 507.941406 381.070312 537.199219 387.609375 560.6875 C 390.183594 569.976562 394.523438 585.515625 396.226562 587.601562 C 398.917969 590.324219 416.765625 603.164062 436.433594 616.996094 C 437.164062 617.523438 437.898438 618.027344 438.628906 618.554688 C 450.125 626.675781 462.109375 635.035156 471.863281 641.769531 C 522.472656 648.664062 582.847656 656.402344 612.851562 659.425781 Z M 640.988281 919.355469 L 611.476562 886.773438 L 601.839844 890.230469 C 603.910156 890.300781 605.789062 891.46875 606.820312 893.289062 L 622.320312 921.632812 C 622.789062 922.480469 623.050781 923.453125 623.050781 924.394531 C 631.109375 922.570312 637.441406 920.785156 640.988281 919.355469 Z M 644.859375 888.6875 L 569.476562 805.488281 C 567.164062 808.761719 563.820312 811.222656 560.019531 812.484375 L 637.441406 897.972656 C 638.847656 894.195312 641.460938 890.90625 644.859375 888.6875 Z M 645.03125 982.558594 L 646.589844 935.820312 C 640.726562 938.167969 632.667969 940.402344 622.46875 942.542969 L 621.152344 977.597656 C 630.8125 979.476562 638.324219 981.09375 645.03125 982.558594 Z M 659.15625 769.628906 L 634.394531 779.296875 L 636.089844 785.078125 L 644.824219 790.554688 C 644.824219 790.496094 644.824219 790.414062 644.824219 790.359375 C 644.824219 788.652344 644.882812 784.988281 659.15625 769.628906 Z M 662.316406 904.511719 C 662.316406 900.5625 659.101562 897.332031 655.140625 897.332031 C 651.191406 897.332031 647.960938 900.5625 647.960938 904.511719 C 647.960938 908.476562 651.191406 911.691406 655.140625 911.691406 C 659.101562 911.691406 662.316406 908.476562 662.316406 904.511719 Z M 672.046875 838.113281 L 658.480469 824.507812 C 657.3125 823.363281 656.660156 821.726562 656.753906 820.078125 C 656.84375 818.4375 657.636719 816.882812 658.894531 815.828125 L 660.65625 814.394531 L 627.972656 793.816406 C 626.773438 793.050781 625.890625 791.90625 625.488281 790.53125 L 623.429688 783.613281 L 612.300781 787.953125 C 612.621094 788.710938 612.792969 789.5 612.792969 790.324219 C 612.792969 797.425781 607.722656 819.230469 607.140625 821.726562 C 606.785156 823.273438 605.765625 824.65625 604.378906 825.449219 C 604.152344 825.5625 603.945312 825.675781 603.707031 825.800781 L 652.207031 879.363281 Z M 691.542969 701.203125 C 693.476562 700.550781 696.109375 700.4375 699.019531 700.734375 C 695.699219 698.972656 691.863281 696.945312 687.296875 694.480469 C 680.027344 690.554688 673.167969 686.867188 668.566406 684.632812 C 658.953125 679.972656 642.535156 674.992188 633.101562 672.265625 C 632.484375 672.355469 631.695312 672.414062 630.675781 672.414062 C 610.835938 672.414062 492.433594 656.402344 468.898438 653.207031 C 467.992188 653.09375 467.113281 652.738281 466.355469 652.234375 C 459.144531 647.253906 396.640625 603.988281 388.226562 596.1875 C 388.113281 596.0625 387.984375 595.949219 387.871094 595.835938 C 384.355469 592.320312 381.78125 583.488281 376.320312 563.847656 C 370.871094 544.289062 362.699219 514.835938 354.488281 506.269531 C 334.066406 491.929688 239.199219 474.019531 193.339844 466.015625 C 216.808594 480.523438 231.792969 489.386719 235.066406 490.703125 C 241.191406 493.132812 327.003906 536.789062 335.945312 550.828125 C 337.902344 553.851562 355.785156 573.730469 381.484375 601.730469 C 410.640625 633.417969 449.824219 675.574219 487.15625 715.417969 L 525.4375 733.535156 L 479.339844 678.277344 C 477.667969 676.285156 477.550781 673.351562 479.015625 671.210938 C 480.484375 669.070312 483.289062 668.132812 485.726562 668.976562 L 535.546875 685.835938 C 536.394531 686.097656 537.183594 686.601562 537.800781 687.246094 C 547.027344 696.453125 555.535156 703.140625 557.546875 703.871094 C 563.386719 704.25 584.050781 713.070312 600.546875 720.488281 C 600.867188 720.636719 601.1875 720.789062 601.449219 720.992188 L 622.730469 735.652344 C 624.425781 736.855469 625.398438 738.871094 625.226562 740.988281 C 625.078125 742.683594 624.195312 744.242188 622.824219 745.238281 L 624.574219 744.527344 C 626.359375 739.078125 628.683594 734.414062 628.796875 734.210938 C 629.4375 732.890625 630.550781 731.894531 631.878906 731.367188 L 682.695312 711.167969 C 683.953125 707.710938 686.527344 702.875 691.542969 701.203125 Z M 677.4375 826.914062 L 701.503906 776.832031 C 688.496094 788.273438 674.714844 799.679688 666.65625 804.339844 L 673.808594 808.820312 C 675.390625 809.816406 676.421875 811.542969 676.535156 813.421875 C 676.648438 815.300781 675.835938 817.121094 674.394531 818.324219 L 671.347656 820.808594 Z M 693.214844 716.941406 L 702.53125 713.195312 C 700.070312 712.667969 697.632812 712.277344 696.054688 712.277344 C 695.46875 712.277344 695.230469 712.335938 695.230469 712.335938 C 694.757812 712.667969 693.625 714.925781 693.273438 716.710938 C 693.273438 716.800781 693.238281 716.859375 693.214844 716.941406 Z M 725.769531 807.535156 L 747.246094 787.863281 L 746.871094 787.507812 L 726 807.03125 Z M 809.40625 698.179688 L 877.371094 667.925781 L 863.679688 661.066406 L 566.671875 780.441406 C 569.71875 783.167969 571.824219 786.832031 572.613281 790.90625 L 725.210938 731.164062 C 727.441406 730.28125 730.054688 730.898438 731.632812 732.628906 C 733.304688 734.414062 733.683594 736.96875 732.628906 739.132812 L 726.035156 752.851562 C 725.863281 754 725.359375 755.085938 724.570312 755.933594 L 661.652344 886.773438 C 665.546875 888.214844 668.832031 890.882812 671.027344 894.308594 L 754.105469 721.519531 C 754.757812 720.167969 755.867188 719.136719 757.273438 718.613281 L 788.070312 706.542969 C 789.742188 705.867188 791.734375 706.039062 793.265625 707 C 794.847656 707.9375 795.867188 709.585938 796.046875 711.398438 C 796.367188 714.625 799 717.03125 802.171875 717.03125 C 805.628906 717.03125 808.410156 714.25 808.410156 710.789062 C 808.410156 709.472656 807.976562 708.203125 807.117188 707.089844 C 806.042969 705.660156 805.6875 703.804688 806.121094 702.074219 C 806.570312 700.34375 807.769531 698.914062 809.40625 698.179688 Z M 908.554688 679.824219 L 891.371094 674.519531 L 819.609375 706.472656 C 819.960938 707.882812 820.132812 709.324219 820.132812 710.789062 C 820.132812 720.695312 812.074219 728.757812 802.171875 728.757812 C 795.695312 728.757812 789.773438 725.207031 786.636719 719.699219 L 763.699219 728.667969 L 744.257812 769.070312 L 776.886719 799.417969 L 781.808594 799.152344 L 783.855469 788.914062 C 784.347656 786.394531 786.523438 784.460938 789.066406 784.230469 L 860.523438 777.773438 C 877.019531 740.988281 898.503906 699.121094 908.554688 679.824219 Z M 970.886719 595.191406 L 978.066406 590.292969 C 957.609375 583.730469 944.890625 580.085938 943.070312 579.972656 C 936.15625 579.972656 814.386719 524.269531 813.21875 523.710938 C 800.46875 517.617188 776.0625 511.925781 769.695312 510.515625 L 701.503906 528.234375 C 684.652344 537.898438 672.515625 545.640625 667.332031 550.039062 C 656.339844 559.359375 631.28125 601.054688 619.011719 622.78125 C 620.234375 626.996094 621.152344 632.652344 622.113281 639.019531 C 622.410156 640.957031 622.753906 643.175781 623.050781 644.734375 L 631.992188 653.679688 C 639.902344 655.84375 662.914062 662.359375 676.214844 668.804688 C 681.101562 671.175781 688.085938 674.933594 695.46875 678.882812 C 704.730469 683.878906 723.21875 693.839844 728.792969 695.605469 C 740.367188 691.4375 815.738281 659.804688 861.894531 640.28125 L 954.976562 597.859375 C 956.109375 597.335938 957.347656 597.058594 958.605469 597.058594 L 962.792969 597.058594 C 964.96875 595.191406 968.039062 594.425781 970.886719 595.191406 Z M 988.265625 579.675781 L 987.441406 576.722656 C 986.617188 575.070312 983.160156 568.808594 974.195312 557.605469 C 968.039062 549.921875 919.980469 532.367188 878.988281 520.515625 L 848.878906 511.753906 C 848.800781 511.753906 825.238281 506.472656 814.890625 504.597656 C 803.523438 502.511719 783.125 499.613281 770.222656 498.5625 C 770.015625 498.527344 769.820312 498.527344 769.617188 498.503906 C 766.683594 498.261719 764.191406 498.113281 762.289062 498.113281 C 760.902344 498.113281 760.171875 498.183594 759.792969 498.261719 C 758.292969 498.5625 753.144531 500.78125 745.105469 504.777344 L 768.117188 498.789062 C 768.621094 498.675781 769.113281 498.617188 769.617188 498.617188 C 769.820312 498.617188 770.015625 498.617188 770.222656 498.652344 C 770.429688 498.652344 770.632812 498.710938 770.816406 498.734375 C 774.035156 499.441406 802.8125 505.742188 818.257812 513.105469 C 835.164062 521.167969 936.363281 566.425781 943.894531 568.28125 C 947.765625 568.601562 962.324219 572.851562 987.292969 580.933594 Z M 993.773438 597.792969 C 993.773438 597.09375 993.453125 596.453125 992.980469 596.0625 C 993.097656 597.359375 992.890625 598.617188 992.457031 599.820312 C 993.1875 599.613281 993.773438 598.765625 993.773438 597.792969 Z M 1000.894531 1003.699219 L 942.726562 898.945312 C 941.375 896.691406 908.292969 841.367188 904.160156 827.96875 C 900.371094 815.65625 929.941406 739.488281 948.726562 693.257812 L 926.539062 683.316406 C 915.492188 704.457031 860.28125 811.144531 856.675781 838.46875 C 854.097656 858.257812 866.464844 903.664062 869.015625 908.796875 C 869.222656 909.207031 869.394531 909.621094 869.542969 910.054688 L 894.339844 987.894531 L 1000.605469 1008.566406 C 1000.25 1006.949219 1000.34375 1005.277344 1000.894531 1003.699219 Z M 968.953125 807.59375 L 1021.589844 699.382812 L 965.519531 700.171875 C 964.671875 700.171875 963.789062 700.003906 963.058594 699.667969 L 959.429688 698.03125 C 930.558594 769.125 914.085938 818.941406 915.378906 824.542969 C 917.898438 832.777344 935.070312 862.734375 945.121094 879.949219 L 968.65625 808.328125 C 968.746094 808.0625 968.863281 807.824219 968.953125 807.59375 Z M 1041.863281 1074.265625 C 1033.714844 1048.933594 1027.714844 1033.714844 1023.511719 1024.5625 C 1023.285156 1025.035156 1023.019531 1025.445312 1022.699219 1025.859375 C 1020.707031 1028.433594 1017.332031 1029.730469 1014.082031 1029.109375 L 885.453125 1004.078125 C 884.847656 1003.925781 884.285156 1003.753906 883.785156 1003.492188 C 874.050781 998.910156 856.035156 991.261719 849.003906 990.324219 C 848.765625 990.300781 848.480469 990.300781 848.125 990.300781 C 840.121094 990.300781 815.648438 998.382812 801.0625 1003.25 C 795.203125 1005.1875 789.796875 1006.972656 785.34375 1008.359375 C 774.355469 1011.726562 742.246094 1015.503906 715.71875 1015.503906 C 697.484375 1015.503906 685.441406 1013.777344 679.933594 1010.316406 C 671.839844 1005.277344 671.839844 1005.277344 668.039062 1004.84375 C 666.78125 1004.660156 665.339844 1004.511719 663.585938 1004.246094 C 658.515625 1003.515625 653.125 1002.347656 645.671875 1000.710938 C 637.269531 998.855469 625.832031 996.335938 608.984375 993.195312 C 605.46875 992.554688 601.242188 992.199219 596.46875 992.199219 C 565.34375 992.199219 519.839844 1006.011719 519.394531 1006.160156 C 518.867188 1006.308594 518.339844 1006.425781 517.8125 1006.480469 L 502.542969 1008.234375 C 500.996094 1010.523438 499.589844 1012.929688 498.671875 1014.828125 C 498.476562 1015.597656 498.238281 1016.363281 498.007812 1017.121094 L 497.769531 1017.886719 C 497.859375 1020.785156 498.765625 1029.292969 499.945312 1039.015625 L 500.34375 1042.453125 C 500.90625 1046.941406 501.488281 1051.566406 502.074219 1055.941406 L 505.5625 1085.582031 C 518.019531 1085.398438 545.5625 1085.078125 574.285156 1084.871094 C 587.003906 1084.789062 599.925781 1084.734375 611.890625 1084.734375 C 641.21875 1084.734375 658.894531 1085.078125 664.433594 1085.753906 C 670.789062 1086.542969 705.28125 1087.101562 748.3125 1087.101562 C 843.671875 1087.101562 1009.511719 1084.378906 1041.863281 1074.265625 Z M 1040.488281 566.484375 C 1040.640625 565.667969 1039.816406 563.082031 1038.109375 561.707031 C 1037.878906 561.535156 1036.699219 561.066406 1034.125 561.066406 C 1033.691406 561.066406 1033.277344 561.066406 1032.898438 561.089844 L 1007.015625 579.089844 C 1008.484375 580.066406 1009.867188 581.289062 1011.058594 582.734375 C 1012.523438 584.429688 1013.609375 586.304688 1014.378906 588.300781 C 1029.730469 576.046875 1038.933594 568.246094 1040.488281 566.484375 Z M 1050.542969 599.179688 L 1050.953125 581.738281 C 1047.929688 582.261719 1044.910156 581.941406 1042.105469 580.796875 C 1033.425781 588.183594 1019.882812 598.9375 1013.703125 603.78125 C 1013.085938 604.894531 1012.144531 605.796875 1010.976562 606.324219 L 1007.726562 607.789062 C 1019.414062 607.503906 1039.289062 603.898438 1050.542969 599.179688 Z M 1059.859375 541.300781 C 1060.328125 541.710938 1060.820312 542.160156 1061.324219 542.628906 C 1061.085938 540.488281 1060.855469 538.367188 1060.648438 536.316406 C 1060.144531 535.847656 1059.148438 535.300781 1057.15625 535.300781 C 1055.898438 535.300781 1054.695312 535.527344 1053.90625 535.734375 L 1052.625 536.9375 C 1055.292969 537.761719 1057.339844 538.871094 1058.714844 540.246094 C 1059.09375 540.625 1059.480469 540.957031 1059.859375 541.300781 Z M 1171.976562 877.1875 L 1168.441406 868.863281 L 1166.847656 869.710938 C 1164.742188 870.796875 1162.222656 871.003906 1159.992188 870.246094 C 1157.738281 869.515625 1155.859375 867.867188 1154.839844 865.722656 L 1151.761719 859.3125 C 1131.75 884.550781 1113.570312 906.859375 1101.5625 921.484375 C 1096.113281 936.53125 1093.320312 952.335938 1093.320312 968.460938 C 1093.320312 989.246094 1097.867188 1009.207031 1106.839844 1027.886719 L 1129.425781 1013.753906 C 1128.351562 1011.050781 1127.378906 1008.359375 1126.496094 1005.632812 L 1122.042969 1007.386719 C 1117.851562 1009.035156 1112.929688 1007.121094 1110.9375 1003.136719 C 1095.816406 972.859375 1123.714844 910.640625 1126.941406 903.664062 C 1128.785156 899.679688 1133.59375 897.628906 1137.726562 899.003906 L 1145.429688 901.613281 C 1152.996094 892.050781 1161.902344 883.839844 1171.976562 877.1875 Z M 1168.40625 1091.179688 L 1179.808594 1070.359375 C 1162.28125 1060.71875 1147.6875 1046.679688 1137.347656 1029.523438 L 1115.449219 1043.242188 C 1128.636719 1063.617188 1146.871094 1080.128906 1168.40625 1091.179688 Z M 1181.742188 900.261719 L 1178.960938 893.703125 C 1173.269531 897.746094 1168.027344 902.40625 1163.335938 907.628906 L 1170.636719 910.089844 C 1174.09375 906.449219 1177.816406 903.160156 1181.742188 900.261719 Z M 1197.484375 505.980469 L 1191.234375 499.707031 C 1184.617188 493.074219 1153.136719 458.078125 1125.351562 427.167969 C 1111.144531 411.363281 1097.660156 396.386719 1089.863281 387.832031 C 1081.804688 397.246094 1075.449219 405.890625 1071.671875 411.25 C 1080.488281 420.628906 1102.03125 443.476562 1104.757812 446.226562 C 1108.832031 449.773438 1177.175781 493.542969 1197.484375 505.980469 Z M 1180.507812 1016.328125 L 1199.625 998.363281 L 1173.476562 1006.503906 C 1175.527344 1009.972656 1177.875 1013.25 1180.507812 1016.328125 Z M 1215.5 906.652344 L 1192.9375 856.058594 L 1184.089844 860.683594 L 1205.714844 911.761719 Z M 1151.292969 585.105469 L 1221.25 585.105469 C 1219.199219 568.28125 1217.320312 554.433594 1216.496094 550.152344 L 1216.003906 549.453125 C 1214.183594 546.84375 1209.996094 540.863281 1204.546875 534.828125 L 1153.753906 523.332031 L 1091.535156 580.96875 C 1089.691406 582.675781 1086.820312 582.996094 1084.65625 581.761719 C 1083.476562 581.085938 1082.125 580.648438 1081.519531 580.5 C 1079.847656 581.085938 1077.761719 581.472656 1075.886719 581.667969 C 1074.007812 581.910156 1072.371094 581.964844 1071.605469 582 C 1068.445312 582 1066.007812 579.859375 1065.628906 576.894531 C 1065.628906 576.835938 1065.367188 574.933594 1064.953125 571.820312 C 1064.082031 573.171875 1063.375 574.222656 1062.847656 574.957031 L 1062.34375 595.511719 C 1087.082031 590.292969 1143.875 585.664062 1150.59375 585.136719 C 1150.824219 585.105469 1151.0625 585.105469 1151.292969 585.105469 Z M 1226.492188 642.800781 L 1227.785156 602.695312 L 1151.648438 602.695312 C 1136.730469 603.898438 1115.390625 605.855469 1096.664062 608.089844 C 1124.859375 615.304688 1168.382812 626.9375 1226.492188 642.800781 Z M 1229.855469 1040.953125 L 1227.578125 1006.183594 C 1225.230469 1005.128906 1222.941406 1003.664062 1220.722656 1001.761719 L 1191.0625 1026.386719 C 1202.222656 1035.03125 1215.800781 1040.140625 1229.855469 1040.953125 Z M 1237.984375 965.496094 C 1239.507812 965.496094 1240.914062 965.792969 1242.289062 966.226562 C 1237.183594 954.96875 1230.625 940.425781 1222.679688 922.722656 L 1205.417969 931.746094 C 1203.894531 932.570312 1202.222656 932.925781 1200.378906 932.683594 L 1194.425781 934.710938 C 1192.617188 935.351562 1190.589844 935.351562 1188.769531 934.746094 L 1139.777344 918.265625 C 1138.21875 921.988281 1136.226562 927.152344 1134.085938 933.300781 C 1132.769531 937.117188 1131.511719 941.042969 1130.367188 944.9375 C 1125.03125 962.976562 1123.015625 977.578125 1124.445312 987.539062 L 1136.582031 982.730469 C 1137.613281 982.316406 1138.722656 982.121094 1139.808594 982.121094 C 1140.886719 982.121094 1141.9375 982.292969 1142.933594 982.671875 L 1164.515625 990.882812 L 1214.859375 975.171875 C 1217.964844 974.199219 1221.363281 975.136719 1223.617188 977.335938 C 1224.933594 970.589844 1230.851562 965.496094 1237.984375 965.496094 Z M 1245.953125 699.441406 L 1053.585938 690.347656 L 1036.359375 698.617188 C 1035.855469 698.855469 1035.304688 699.027344 1034.742188 699.121094 L 979.679688 812.371094 L 953.042969 893.402344 L 1008.953125 994.113281 L 1075.210938 925.824219 C 1075.886719 924.976562 1080.054688 919.960938 1086.519531 912.105469 C 1097.921875 898.179688 1120.726562 870.179688 1145.132812 839.257812 C 1164.890625 814.246094 1182.039062 791.90625 1196.097656 772.90625 C 1199.417969 768.429688 1202.632812 763.996094 1205.75 759.710938 C 1207.738281 756.964844 1209.640625 754.296875 1211.519531 751.652344 C 1211.574219 751.570312 1211.691406 751.421875 1211.804688 751.25 C 1227.464844 729.191406 1237.425781 713.308594 1241.386719 704.042969 C 1242.289062 701.960938 1243.925781 700.324219 1245.953125 699.441406 Z M 1251.835938 1104.714844 L 1244.84375 1083.726562 C 1241.144531 1084.082031 1237.480469 1084.261719 1233.988281 1084.261719 C 1220.894531 1084.261719 1208.082031 1082.03125 1195.867188 1077.632812 L 1184.617188 1098.210938 C 1205.976562 1105.894531 1228.6875 1108.265625 1251.835938 1104.714844 Z M 1284.929688 1019.148438 L 1254.914062 1001.761719 C 1252.132812 1003.8125 1248.90625 1005.394531 1245.277344 1006.480469 L 1244.84375 1040.289062 C 1260.160156 1037.882812 1274.207031 1030.496094 1284.929688 1019.148438 Z M 1261.714844 688.445312 L 1302.308594 690.53125 L 1236.863281 657.777344 C 1171.714844 639.957031 1091.007812 618.347656 1066.28125 612.542969 C 1062.023438 613.425781 1060.386719 614.042969 1059.800781 614.304688 C 1045.90625 620.867188 1020.410156 625.414062 1006.226562 625.414062 C 995.386719 625.414062 979.792969 618.851562 970.96875 614.648438 C 970.910156 614.648438 970.855469 614.648438 970.832031 614.648438 L 960.503906 614.648438 L 881.847656 650.507812 L 895.953125 657.550781 C 895.953125 657.550781 928.359375 668.714844 929.355469 671.152344 C 929.449219 671.382812 929.539062 671.625 929.621094 671.851562 L 966.664062 688.414062 L 1032.453125 687.484375 L 1049.832031 679.125 C 1050.65625 678.746094 1051.503906 678.5625 1052.417969 678.5625 L 1052.625 678.5625 Z M 1276.195312 965.171875 L 1303.660156 961.863281 C 1301.75 947.023438 1295.15625 933.210938 1284.804688 922.367188 L 1280.742188 929.316406 C 1280.914062 937.289062 1279.300781 952.1875 1276.195312 965.171875 Z M 1304.003906 976.601562 L 1269.683594 983.40625 C 1269.15625 984.253906 1268.664062 984.984375 1268.136719 985.605469 C 1267.429688 986.453125 1266.695312 987.21875 1265.90625 987.835938 L 1294.042969 1007.238281 C 1299.699219 997.949219 1303.097656 987.480469 1304.003906 976.601562 Z M 1293.539062 805.625 L 1314.765625 785.835938 C 1292.691406 772.527344 1248.117188 766.90625 1223.148438 765.578125 C 1221.132812 768.449219 1219.015625 771.359375 1216.875 774.3125 C 1209.410156 784.574219 1200.996094 795.867188 1191.152344 808.738281 L 1200.792969 830.429688 C 1204.867188 839.601562 1209.730469 850.597656 1215.007812 862.414062 L 1230.304688 896.691406 C 1242.609375 924.246094 1252.304688 945.761719 1259.164062 960.832031 C 1261.921875 948.671875 1263.972656 932.683594 1263.066406 928.148438 C 1262.597656 925.800781 1261.566406 922.195312 1260.398438 918.027344 C 1259.027344 913.226562 1257.527344 907.914062 1256.300781 902.691406 C 1255.121094 897.765625 1254.367188 893.253906 1253.976562 889.304688 C 1253.566406 884.816406 1253.65625 881.171875 1254.296875 878.183594 C 1254.480469 877.335938 1254.746094 876.339844 1255.15625 875.195312 C 1256.117188 872.414062 1257.699219 868.746094 1260.042969 863.996094 C 1263.742188 856.492188 1269.132812 846.554688 1276.082031 834.472656 C 1278.132812 830.863281 1280.148438 827.382812 1282.058594 824.152344 C 1286.570312 816.503906 1290.324219 810.320312 1292.019531 807.503906 C 1292.464844 806.804688 1292.957031 806.183594 1293.539062 805.625 Z M 1329.234375 971.390625 C 1329.234375 933.417969 1306.085938 898.648438 1271.273438 883.761719 C 1271.21875 885.753906 1271.445312 888.363281 1271.972656 891.582031 C 1302.332031 906.21875 1321.851562 937.140625 1321.851562 970.796875 C 1321.851562 1019.261719 1282.4375 1058.691406 1233.988281 1058.691406 C 1198.707031 1058.691406 1167.148438 1037.824219 1153.226562 1005.425781 L 1143.738281 1001.820312 C 1156.71875 1040.253906 1193.054688 1066.671875 1233.988281 1066.671875 C 1286.511719 1066.671875 1329.234375 1023.921875 1329.234375 971.390625 Z M 1241.578125 647.046875 L 1318.3125 685.421875 C 1294.890625 623.125 1278.773438 587.269531 1270.359375 578.863281 L 1229.332031 537.816406 C 1229.742188 538.402344 1230.097656 538.929688 1230.417969 539.363281 L 1230.625 539.660156 C 1230.851562 539.984375 1231.035156 540.246094 1231.183594 540.453125 C 1233.234375 542.652344 1234.136719 544.414062 1239.53125 589.820312 C 1239.769531 590.496094 1239.851562 591.195312 1239.851562 591.871094 L 1239.828125 592.398438 L 1239.851562 592.730469 C 1240 593.785156 1239.941406 594.746094 1239.734375 595.742188 L 1238.121094 645.996094 L 1240.503906 646.636719 C 1240.882812 646.726562 1241.234375 646.875 1241.578125 647.046875 Z M 1331.613281 1062.675781 L 1315.816406 1049.015625 C 1301.1875 1064.472656 1282.8125 1075.320312 1262.332031 1080.621094 L 1269.132812 1100.972656 C 1293.011719 1094.113281 1314.5 1080.941406 1331.613281 1062.675781 Z M 1320.476562 899.027344 L 1341.140625 885.570312 C 1327.859375 867.980469 1310.539062 853.769531 1290.757812 844.242188 C 1285.574219 853.300781 1281.210938 861.246094 1277.949219 867.488281 C 1294.363281 874.460938 1308.960938 885.285156 1320.476562 899.027344 Z M 1366.578125 993.871094 L 1344.769531 992.726562 C 1341.835938 1007.914062 1335.691406 1022.546875 1326.898438 1035.351562 L 1342.8125 1049.105469 C 1354.703125 1032.695312 1362.855469 1013.71875 1366.578125 993.871094 Z M 1368.683594 976.375 C 1368.867188 973.5 1368.945312 970.921875 1368.945312 968.460938 C 1368.945312 944.503906 1362.707031 920.992188 1350.835938 900.261719 L 1330.699219 913.363281 C 1341.253906 930.875 1346.816406 950.871094 1346.816406 971.390625 C 1346.816406 972.617188 1346.792969 973.878906 1346.738281 975.230469 Z M 1422.464844 966.171875 C 1422.464844 897.445312 1385.382812 833.921875 1325.570312 799.796875 L 1306.40625 817.671875 C 1304.324219 821.140625 1302.011719 824.945312 1299.640625 828.996094 C 1352.542969 855.085938 1386.53125 909.472656 1386.53125 968.460938 C 1386.53125 1004.078125 1374.132812 1038.878906 1351.625 1066.523438 C 1351.363281 1066.902344 1351.097656 1067.28125 1350.8125 1067.636719 C 1350.605469 1067.875 1350.367188 1068.070312 1350.136719 1068.277344 C 1328.707031 1093.929688 1298.816406 1112.308594 1266.203125 1119.878906 C 1265.675781 1120.050781 1265.378906 1120.085938 1265.230469 1120.085938 C 1254.070312 1122.605469 1242.550781 1123.921875 1231.152344 1123.921875 C 1210.992188 1123.921875 1191.324219 1120.085938 1172.710938 1112.492188 C 1170.84375 1112.757812 1168.96875 1112.378906 1167.351562 1111.496094 C 1166.117188 1110.820312 1165.097656 1109.914062 1164.332031 1108.769531 C 1135.699219 1095.074219 1112.199219 1073.269531 1096.34375 1045.648438 C 1096.195312 1045.476562 1096.046875 1045.292969 1095.90625 1045.085938 C 1095.644531 1044.652344 1095.40625 1044.179688 1095.199219 1043.65625 C 1082.480469 1020.726562 1075.738281 994.71875 1075.738281 968.460938 C 1075.738281 962.128906 1076.148438 955.703125 1076.9375 949.277344 L 1040.902344 986.453125 C 1051.214844 1084.082031 1132.769531 1157.554688 1231.152344 1157.554688 C 1336.628906 1157.554688 1422.464844 1071.675781 1422.464844 966.171875 Z M 1337.085938 786.15625 C 1400.65625 823.742188 1440.046875 892.523438 1440.046875 966.171875 C 1440.046875 1081.390625 1346.324219 1175.148438 1231.152344 1175.148438 C 1162.050781 1175.148438 1098.105469 1141.28125 1058.976562 1084.261719 C 1054.351562 1090.265625 1039.460938 1100.386719 859.136719 1103.753906 C 818.554688 1104.488281 781.15625 1104.660156 756.921875 1104.660156 C 709.539062 1104.660156 668.832031 1104.050781 662.261719 1103.226562 C 658.929688 1102.78125 647.582031 1102.324219 612.417969 1102.324219 C 594.511719 1102.324219 573.871094 1102.4375 553.714844 1102.644531 C 533.519531 1102.816406 513.863281 1103.054688 497.882812 1103.285156 C 493.28125 1103.285156 489.5625 1099.941406 489.035156 1095.519531 L 484.636719 1058.140625 C 484.558594 1057.464844 484.285156 1055.554688 483.960938 1052.917969 C 446.253906 1128.9375 368.617188 1177.515625 283.421875 1177.515625 C 159.996094 1177.515625 59.585938 1077.070312 59.585938 953.597656 C 59.585938 830.109375 159.996094 729.664062 283.421875 729.664062 C 292.742188 729.664062 302.152344 730.257812 311.503906 731.460938 C 309.007812 728.230469 307.394531 726.089844 307.3125 725.941406 C 305.253906 723.191406 304.992188 719.457031 306.660156 716.445312 C 308.308594 713.457031 311.585938 711.695312 315.019531 711.933594 C 319.09375 712.222656 415.070312 720.523438 498.96875 807.949219 L 512.742188 822.6875 C 514.769531 824.863281 515.558594 827.851562 514.859375 830.75 C 514.128906 833.796875 513.886719 837.058594 513.945312 838.789062 C 516.347656 840.519531 518.339844 842.945312 519.839844 845.96875 C 528.390625 844.996094 536.164062 844.972656 543.078125 845.855469 C 554.445312 847.320312 568.984375 850.515625 581.40625 853.5625 L 540.355469 808.234375 L 504.15625 797.425781 C 502.667969 796.976562 501.375 795.925781 500.640625 794.550781 C 499.945312 793.164062 499.761719 791.527344 500.230469 790.0625 L 513.507812 747.34375 L 478.136719 730.601562 C 477.140625 730.132812 476.222656 729.457031 475.46875 728.667969 C 450.914062 702.464844 328.058594 571.179688 321.109375 560.277344 C 316.3125 553.003906 242.785156 512.714844 228.566406 507.035156 C 218.570312 503.050781 153.195312 461.765625 140.179688 453.53125 C 136.664062 451.296875 135.199219 447.015625 136.605469 443.085938 C 137.980469 439.285156 141.851562 436.847656 146.015625 437.371094 C 234.105469 448.777344 383.507812 468.945312 394.292969 475.804688 C 407.480469 484.1875 411.898438 510.78125 412.953125 518.726562 L 417.679688 547.371094 C 423.621094 548.25 430.890625 550.222656 435.34375 554.699219 C 436.9375 556.289062 443.496094 559.542969 454.863281 564.433594 C 458.46875 565.992188 460.105469 566.6875 461.308594 567.398438 C 468.234375 570.183594 534.90625 592.789062 558.898438 593.667969 C 588.035156 594.722656 605.847656 606.941406 606.578125 607.445312 C 606.820312 607.617188 607.023438 607.765625 607.230469 607.9375 C 618.714844 588 642.71875 547.839844 655.964844 536.617188 C 672.847656 522.277344 746.171875 482.699219 756.898438 480.914062 C 758.269531 480.671875 760.035156 480.558594 762.230469 480.558594 C 778.957031 480.558594 817.671875 487.210938 818.027344 487.269531 C 828.835938 489.238281 852.074219 494.449219 853.082031 494.691406 L 853.574219 494.804688 L 883.875 503.601562 C 905.121094 509.761719 975.457031 531.015625 987.945312 546.636719 C 996.703125 557.574219 1000.871094 564.433594 1002.65625 567.835938 L 1021.144531 554.960938 C 1021.441406 550.65625 1023.320312 545.582031 1027.828125 542.707031 L 1028.46875 542.238281 L 1031.402344 539.984375 L 1035.773438 536.640625 L 1046.902344 526.207031 C 1047.496094 525.679688 1048.160156 525.265625 1048.894531 525.003906 C 1051.332031 524.097656 1054.285156 523.59375 1057.019531 523.59375 C 1063.464844 523.59375 1068.558594 526.320312 1071.410156 531.246094 C 1071.789062 531.976562 1072.050781 532.746094 1072.144531 533.570312 C 1073.402344 545.753906 1075.394531 561.328125 1076.503906 569.710938 C 1077.03125 569.621094 1077.386719 569.507812 1077.558594 569.449219 C 1079.960938 568.417969 1083.007812 568.507812 1086.40625 569.746094 L 1148.039062 512.636719 C 1149.449219 511.339844 1151.441406 510.78125 1153.316406 511.226562 L 1183.675781 518.085938 C 1162.660156 504.949219 1096.925781 463.265625 1092.324219 458.660156 C 1088.488281 454.8125 1054.375 418.523438 1054.019531 418.144531 C 1051.273438 415.214844 1050.863281 410.78125 1053.023438 407.378906 C 1053.527344 406.625 1065.457031 388.117188 1083.304688 368.796875 C 1084.917969 367.046875 1087.195312 366.015625 1089.578125 365.957031 C 1089.601562 365.957031 1089.785156 365.957031 1089.957031 365.957031 C 1092.117188 365.957031 1094.316406 366.898438 1095.964844 368.535156 C 1098.839844 371.410156 1113.984375 388.242188 1138.425781 415.417969 C 1164.683594 444.609375 1197.355469 480.96875 1203.664062 487.269531 L 1282.789062 566.425781 C 1294.332031 577.980469 1311.480469 616.265625 1341.953125 698.59375 C 1342.683594 700.550781 1342.683594 702.75 1341.953125 704.71875 C 1338.472656 714.066406 1329.625 714.214844 1300.375 714.71875 C 1289.179688 714.925781 1273.964844 715.1875 1255.15625 716.035156 C 1251.082031 724.0625 1244.28125 735.054688 1234.90625 748.808594 C 1261.246094 751.007812 1313.5625 757.960938 1334.570312 778.976562 C 1336.238281 780.648438 1337.179688 782.960938 1337.15625 785.34375 C 1337.121094 785.628906 1337.121094 785.890625 1337.085938 786.15625 " fill-opacity="1" fill-rule="nonzero"/></g><path fill="#252424" d="M 770.222656 498.5625 L 770.222656 498.652344 C 770.015625 498.617188 769.820312 498.617188 769.617188 498.617188 C 769.113281 498.617188 768.621094 498.675781 768.117188 498.789062 L 745.105469 504.777344 C 753.144531 500.78125 758.292969 498.5625 759.792969 498.261719 C 760.171875 498.183594 760.902344 498.113281 762.289062 498.113281 C 764.191406 498.113281 766.683594 498.261719 769.617188 498.503906 C 769.820312 498.527344 770.015625 498.527344 770.222656 498.5625 " fill-opacity="1" fill-rule="nonzero"/><path fill="#656263" d="M 833.5625 922.984375 C 833.5625 958.0625 805.136719 986.496094 770.074219 986.496094 C 735 986.496094 706.574219 958.0625 706.574219 922.984375 C 706.574219 887.90625 735 859.460938 770.074219 859.460938 C 805.136719 859.460938 833.5625 887.90625 833.5625 922.984375 " fill-opacity="1" fill-rule="nonzero"/></svg>